<svg width="358" height="27" viewBox="0 0 358 27" fill="none" xmlns="http://www.w3.org/2000/svg">
<g clip-path="url(#clip0_2_1020)">
<path d="M51.0622 9.09931C51.0622 4.60391 46.5668 1.79504 42.4111 1.79504H30.3506V25.8312H37.5821V14.1589L43.1452 25.6128L43.2119 25.8251H51.4323L45.7235 15.7059C49.0359 14.711 51.0683 12.1933 51.0683 9.10538L51.0622 9.09931ZM37.576 5.23484H39.6811C41.762 5.13778 43.5213 6.75151 43.6184 8.83238C43.6184 8.94764 43.6184 9.06291 43.6184 9.17211C43.6184 12.5391 41.7195 13.17 38.3465 13.17H37.576V5.24091V5.23484Z" fill="white"/>
<path d="M112.864 21.8818V15.2813H120.732V11.4168H112.864V5.51392H121.151V1.65552H105.632V25.6674H121.569V21.8818H112.864Z" fill="white"/>
<path d="M90.8293 1.65548H80.2065V25.6673H91.9516C99.1163 25.6673 103.751 21.1052 103.751 14.08C103.739 6.91528 98.3337 1.64941 90.8353 1.64941L90.8293 1.65548ZM96.2347 13.1761C96.2347 17.5987 94.4814 22.3731 89.4946 22.3731H87.1225V4.95575H89.3005C94.1174 4.95575 96.2225 9.10535 96.2225 13.1761H96.2407H96.2347Z" fill="white"/>
<path d="M77.6829 3.41484L75.6445 1.37644L73.1754 3.84557C70.8822 2.08017 68.0673 1.11557 65.1795 1.1095C58.1786 1.06097 52.4577 6.6969 52.4092 13.6978C52.391 16.622 53.3799 19.4672 55.212 21.7422L52.7429 24.2114L54.7752 26.2498L57.2443 23.7806C59.5193 25.5278 62.31 26.4682 65.1795 26.4439C72.1259 26.5592 77.8467 21.0203 77.9559 14.074C77.9559 13.983 77.9559 13.898 77.9559 13.807C77.9559 10.9314 76.9913 8.1347 75.2198 5.86577L77.6769 3.41484H77.6829ZM65.1795 4.2581C67.4303 4.2581 68.6921 5.7323 69.4626 7.55837L60.126 16.901C60.0047 15.8515 59.9379 14.7959 59.9319 13.7342C59.8469 10.9314 60.4051 4.25204 65.1795 4.25204V4.2581ZM70.2331 10.7919C70.3605 11.7929 70.4272 12.806 70.4393 13.8131C70.4393 16.6887 69.9479 23.2953 65.1674 23.2953C62.9894 23.2953 61.6548 21.8878 60.9511 20.1285L70.2331 10.7919Z" fill="white"/>
<path d="M147.207 21.9546C146.182 23.4106 144.798 24.5754 143.185 25.3276C141.632 26.0192 139.945 26.3711 138.24 26.3529C136.505 26.3711 134.782 26.0556 133.175 25.4126C131.688 24.812 130.348 23.9141 129.231 22.7614C128.121 21.6088 127.254 20.2498 126.677 18.7574C126.052 17.1316 125.737 15.4026 125.755 13.6614C125.737 11.9264 126.046 10.2034 126.677 8.58364C127.254 7.09124 128.127 5.72624 129.237 4.57357C130.354 3.43304 131.694 2.5291 133.175 1.9285C134.776 1.2733 136.499 0.95177 138.234 0.96997C139.806 0.957836 141.365 1.2551 142.827 1.84357C144.301 2.46844 145.581 3.4755 146.533 4.76164L144.677 6.2965C143.973 5.21057 142.978 4.35517 141.795 3.82737C140.667 3.3117 139.435 3.04477 138.192 3.04477C136.736 3.0205 135.292 3.29957 133.945 3.8577C132.738 4.37337 131.658 5.1317 130.754 6.08417C129.856 7.0609 129.159 8.2075 128.71 9.45724C128.224 10.804 127.982 12.2236 127.994 13.6554C127.982 15.0871 128.224 16.5067 128.71 17.8535C129.159 19.1032 129.856 20.2559 130.754 21.2326C131.664 22.1972 132.762 22.9677 133.982 23.4834C135.328 24.0476 136.772 24.3266 138.228 24.3024C139.563 24.2902 140.873 23.9808 142.068 23.3863C142.711 23.0708 143.312 22.6826 143.858 22.2336C144.44 21.7483 144.95 21.178 145.363 20.541L147.207 21.9606V21.9546Z" fill="white"/>
<path d="M158.74 1.5827H161.057L171.225 25.7341H168.701L166.074 19.3277H153.28L150.55 25.7341H148.196L158.74 1.5827ZM159.795 4.05184L154.165 17.2832H165.255L159.795 4.05184Z" fill="white"/>
<path d="M175.35 21.2327C175.884 22.1973 176.685 22.992 177.656 23.5198C178.651 24.0355 179.755 24.2963 180.877 24.2721C181.599 24.2721 182.309 24.1568 182.988 23.9263C183.619 23.72 184.202 23.3985 184.711 22.9738C185.196 22.5673 185.591 22.0577 185.876 21.4935C186.167 20.8808 186.313 20.2074 186.301 19.5279C186.331 18.7999 186.143 18.078 185.767 17.4531C185.409 16.895 184.923 16.4339 184.353 16.1003C183.722 15.7302 183.055 15.4269 182.357 15.1963C181.623 14.9476 180.853 14.6928 180.076 14.4501C179.3 14.2075 178.523 13.9102 177.789 13.5947C177.061 13.2914 176.388 12.8728 175.793 12.3571C175.186 11.8233 174.701 11.1681 174.38 10.4279C173.997 9.52399 173.821 8.54725 173.846 7.56445C173.821 6.58165 174.034 5.60492 174.465 4.71312C174.871 3.90019 175.453 3.18432 176.169 2.63225C176.909 2.07412 177.747 1.65552 178.638 1.39465C179.591 1.10952 180.574 0.963921 181.569 0.969988C182.824 0.957854 184.074 1.19445 185.239 1.66765C186.404 2.16512 187.417 2.97199 188.157 4.00332L186.21 5.39865C185.706 4.64032 185.027 4.00939 184.232 3.56045C183.395 3.13579 182.46 2.92345 181.52 2.94165C180.816 2.94165 180.113 3.03872 179.439 3.23285C178.814 3.41485 178.232 3.71819 177.722 4.11859C177.231 4.49472 176.824 4.98005 176.539 5.53212C176.23 6.15699 176.078 6.84859 176.096 7.54625C176.03 8.55939 176.363 9.56039 177.025 10.3248C177.674 10.9921 178.456 11.5139 179.324 11.8597C180.301 12.254 181.308 12.5877 182.327 12.8485C183.364 13.1155 184.371 13.5037 185.33 13.9891C186.246 14.4623 187.035 15.1478 187.629 15.985C188.303 17.0345 188.624 18.2721 188.551 19.5158C188.57 20.5168 188.357 21.5057 187.933 22.4157C187.544 23.2468 186.986 23.9809 186.282 24.5754C185.573 25.1639 184.76 25.6128 183.88 25.8919C182.964 26.1891 182.011 26.3408 181.047 26.3347C179.542 26.3529 178.044 26.0678 176.649 25.4975C175.259 24.8969 174.064 23.9202 173.203 22.6765L175.356 21.2205L175.35 21.2327Z" fill="white"/>
<path d="M199.022 3.60897H190.766V1.5827H209.53V3.6029H201.273V25.7402H199.022V3.60897Z" fill="white"/>
<path d="M213.249 1.5827H228.027V3.6029H215.499V12.254H227.244V14.3045H215.499V23.6836H228.567V25.728H213.255V1.5827H213.249Z" fill="white"/>
<path d="M231.946 1.5827H238.292C238.607 1.5827 239.038 1.5827 239.584 1.6191C240.178 1.64337 240.773 1.7101 241.355 1.82537C242.017 1.9467 242.672 2.1287 243.303 2.37137C243.958 2.6201 244.559 2.99017 245.074 3.46337C245.62 3.97297 246.063 4.5857 246.373 5.26517C246.737 6.10237 246.912 7.01237 246.888 7.92844C246.919 8.9173 246.706 9.90617 246.269 10.798C245.905 11.5078 245.396 12.1326 244.765 12.624C244.164 13.0851 243.491 13.437 242.769 13.6614C242.089 13.8798 241.398 14.0376 240.694 14.1407L247.738 25.7341H245.177L238.377 14.2742H234.197V25.7341H231.946L231.934 1.5827H231.946ZM234.209 12.254H238.983C239.96 12.2904 240.937 12.1387 241.865 11.8172C242.514 11.5806 243.103 11.2105 243.588 10.7252C243.97 10.3308 244.261 9.85157 244.425 9.32984C244.565 8.88697 244.637 8.4259 244.65 7.96484C244.644 7.50377 244.565 7.0427 244.425 6.59984C244.261 6.07204 243.976 5.59884 243.588 5.2045C243.097 4.71917 242.508 4.3491 241.865 4.1125C240.943 3.7667 239.96 3.59684 238.971 3.60897H234.209V12.26V12.254Z" fill="white"/>
<path d="M253.974 1.58875H261.442C263.529 1.58875 265.307 1.84355 266.763 2.35315C268.219 2.86275 269.426 3.51795 270.391 4.31268C271.355 5.10741 272.12 5.99315 272.678 6.95775C273.23 7.92235 273.642 8.85055 273.903 9.73628C274.164 10.622 274.328 11.4228 274.395 12.1387C274.461 12.8545 274.498 13.3641 274.498 13.6553C274.498 13.9465 274.467 14.4561 274.395 15.172C274.328 15.8879 274.164 16.6887 273.903 17.5744C273.642 18.4601 273.23 19.3883 272.678 20.3529C272.12 21.3175 271.355 22.2033 270.391 22.998C269.426 23.7927 268.213 24.4479 266.763 24.9575C265.307 25.4671 263.535 25.7219 261.442 25.7219H253.974V1.58875ZM256.225 23.6835H260.86C262.449 23.6835 263.942 23.4833 265.325 23.089C266.714 22.6947 267.915 22.0819 268.941 21.2629C269.966 20.4439 270.767 19.4065 271.361 18.1447C271.956 16.8828 272.247 15.3904 272.247 13.6614C272.247 11.9324 271.95 10.44 271.361 9.17815C270.773 7.91628 269.966 6.87888 268.941 6.05988C267.915 5.24088 266.714 4.63421 265.325 4.23381C263.942 3.83341 262.449 3.63928 260.86 3.63928H256.225V23.6896V23.6835Z" fill="#AB976F"/>
<path d="M297.387 16.4945C297.387 17.7928 297.236 19.0304 296.944 20.2134C296.647 21.3964 296.156 22.4399 295.458 23.3499C294.766 24.2599 293.856 24.9879 292.728 25.5339C291.606 26.0799 290.223 26.3529 288.585 26.3529C286.947 26.3529 285.569 26.0799 284.441 25.5339C283.319 24.9879 282.409 24.2599 281.711 23.3499C281.013 22.4399 280.522 21.3964 280.231 20.2134C279.933 19.0304 279.788 17.7928 279.788 16.4945V1.58875H282.039V15.9121C282.039 16.7736 282.117 17.6957 282.275 18.6725C282.433 19.6492 282.748 20.5592 283.216 21.4025C283.683 22.2457 284.338 22.9373 285.193 23.4833C286.043 24.0293 287.177 24.3023 288.585 24.3023C289.992 24.3023 291.126 24.0293 291.976 23.4833C292.825 22.9373 293.486 22.2457 293.954 21.4025C294.415 20.5592 294.73 19.6492 294.894 18.6725C295.052 17.6957 295.13 16.7736 295.13 15.9121V1.58875H297.381V16.4945H297.387Z" fill="#AB976F"/>
<path d="M302.671 13.6614C302.671 11.8171 302.981 10.1245 303.593 8.57755C304.206 7.03055 305.061 5.69588 306.147 4.57355C307.239 3.45121 308.556 2.56548 310.091 1.92848C311.626 1.29148 313.312 0.976013 315.15 0.976013C316.988 0.976013 318.681 1.29148 320.216 1.92848C321.751 2.56548 323.061 3.44515 324.153 4.57355C325.245 5.69588 326.101 7.03661 326.713 8.57755C327.326 10.1245 327.635 11.8171 327.635 13.6614C327.635 15.5057 327.326 17.2043 326.713 18.7574C326.101 20.3165 325.245 21.6573 324.153 22.7796C323.061 23.9019 321.751 24.7816 320.216 25.4065C318.681 26.0313 316.995 26.3407 315.15 26.3407C313.306 26.3407 311.626 26.0313 310.091 25.4065C308.556 24.7816 307.245 23.908 306.147 22.7796C305.055 21.6573 304.206 20.3165 303.593 18.7574C302.981 17.1983 302.671 15.4996 302.671 13.6614ZM304.922 13.6614C304.922 15.1599 305.158 16.5613 305.638 17.8535C306.117 19.1517 306.796 20.2741 307.682 21.2265C308.568 22.179 309.642 22.9313 310.904 23.4773C312.165 24.0233 313.579 24.2963 315.15 24.2963C316.722 24.2963 318.135 24.0233 319.397 23.4773C320.659 22.9313 321.733 22.179 322.618 21.2265C323.504 20.2741 324.19 19.1457 324.669 17.8535C325.148 16.5552 325.385 15.1599 325.385 13.6614C325.385 12.1629 325.148 10.7615 324.669 9.46935C324.19 8.17108 323.51 7.04875 322.618 6.09628C321.733 5.14381 320.659 4.39155 319.397 3.84555C318.135 3.29955 316.722 3.02655 315.15 3.02655C313.579 3.02655 312.165 3.29955 310.904 3.84555C309.642 4.39155 308.568 5.14381 307.682 6.09628C306.796 7.04875 306.117 8.17715 305.638 9.46935C305.158 10.7676 304.922 12.1629 304.922 13.6614Z" fill="#AB976F"/>
</g>
<defs>
<clipPath id="clip0_2_1020">
<rect width="357.933" height="25.48" fill="white" transform="translate(0.0234375 0.969971)"/>
</clipPath>
</defs>
</svg>
