<svg width="190" height="26" viewBox="0 0 190 26" fill="none" xmlns="http://www.w3.org/2000/svg">
<g id="Group">
<path id="Vector" d="M0.26416 0.630371H9.30232C10.3517 0.630371 11.4072 0.703162 12.4687 0.854809C13.5302 1.00646 14.4826 1.29762 15.3257 1.74649C16.1689 2.1893 16.8543 2.81409 17.3821 3.61479C17.9098 4.41548 18.1706 5.47701 18.1706 6.79937C18.1706 8.17026 17.7885 9.30458 17.0242 10.2084C16.2599 11.1122 15.2469 11.7552 13.9913 12.1434V12.2101C14.792 12.3254 15.5138 12.5498 16.1628 12.8774C16.8119 13.211 17.3699 13.6296 17.8431 14.1452C18.3102 14.6608 18.668 15.2552 18.9228 15.9407C19.1715 16.6261 19.2989 17.354 19.2989 18.1304C19.2989 19.4103 19.0259 20.4779 18.48 21.3332C17.9341 22.1885 17.2244 22.88 16.3569 23.4078C15.4895 23.9355 14.5129 24.3116 13.4271 24.536C12.3413 24.7665 11.2616 24.8757 10.194 24.8757H0.26416V0.630371ZM5.60214 10.3176H9.47217C9.88465 10.3176 10.2911 10.2751 10.6853 10.1781C11.0857 10.0871 11.4436 9.93544 11.7651 9.73526C12.0866 9.52902 12.3413 9.25606 12.5354 8.91637C12.7295 8.57668 12.8266 8.1642 12.8266 7.68499C12.8266 7.18152 12.7174 6.76904 12.499 6.43542C12.2807 6.1018 12.0016 5.84703 11.6619 5.66505C11.3223 5.48308 10.934 5.34963 10.4973 5.27077C10.0606 5.19191 9.64201 5.14945 9.22953 5.14945H5.60214V10.3176ZM5.60214 20.3506H10.3942C10.8067 20.3506 11.2191 20.302 11.6438 20.211C12.0684 20.1201 12.4505 19.9623 12.7902 19.7318C13.1299 19.5013 13.4089 19.2041 13.6273 18.8402C13.8457 18.4762 13.9549 18.0273 13.9549 17.5057C13.9549 16.9355 13.8093 16.4745 13.5242 16.1166C13.2391 15.7647 12.8812 15.4978 12.4445 15.3098C12.0077 15.1278 11.5406 15.0004 11.0432 14.9337C10.5398 14.867 10.0727 14.8306 9.64201 14.8306H5.60214V20.3506Z" fill="white"/>
<path id="Vector_2" d="M32.1403 0.630371H36.5563L47.1049 24.8757H41.0754L38.9887 19.7379H29.5745L27.5545 24.8757H21.6646L32.1403 0.630371ZM34.1967 7.68499L31.2547 15.2188H37.1811L34.1967 7.68499Z" fill="white"/>
<path id="Vector_3" d="M70.4281 21.2787C69.403 22.7163 68.0988 23.7778 66.5217 24.4633C64.9446 25.1487 63.325 25.4884 61.6569 25.4884C59.7643 25.4884 58.0173 25.1912 56.4159 24.5967C54.8206 24.0023 53.4376 23.1531 52.2729 22.043C51.1083 20.9329 50.1984 19.5924 49.5494 18.0213C48.9003 16.4442 48.5728 14.6851 48.5728 12.7501C48.5728 10.809 48.9003 9.04988 49.5494 7.47882C50.1984 5.90169 51.1083 4.56113 52.2729 3.45714C53.4376 2.34708 54.8206 1.49786 56.4159 0.903403C58.0113 0.308947 59.7582 0.0117188 61.6569 0.0117188C62.3423 0.0117188 63.0581 0.0723776 63.7981 0.199761C64.5382 0.327145 65.2721 0.527319 65.9879 0.800283C66.7097 1.07325 67.3952 1.4372 68.0624 1.89821C68.7236 2.35315 69.3181 2.91121 69.8458 3.57846L65.7392 6.93289C65.2115 6.29597 64.5685 5.80464 63.8042 5.45888C63.0399 5.11919 62.1543 4.94328 61.1534 4.94328C60.1465 4.94328 59.2184 5.13739 58.3631 5.52561C57.5078 5.91382 56.7678 6.45369 56.1369 7.15126C55.5061 7.84884 55.0208 8.6738 54.6629 9.63221C54.3111 10.5906 54.1291 11.6279 54.1291 12.7501C54.1291 13.8905 54.305 14.9338 54.6629 15.8861C55.0147 16.8324 55.5 17.6574 56.1187 18.3489C56.7374 19.0465 57.4593 19.5863 58.2903 19.9745C59.1213 20.3628 60.0191 20.5569 60.9775 20.5569C62.0754 20.5569 63.0459 20.3264 63.8891 19.8714C64.7323 19.4165 65.4298 18.7735 65.9758 17.9546L70.4281 21.2787Z" fill="white"/>
<path id="Vector_4" d="M75.2566 0.630371H80.6006V10.6997L90.0149 0.630371H97.0028L86.2176 11.8947L97.9309 24.8757H90.4638L80.6006 13.3687V24.8757H75.2566V0.630371Z" fill="white"/>
<path id="Vector_5" d="M103.299 0.630371H110.354C112.817 0.630371 114.764 1.16417 116.195 2.23783C117.621 3.31149 118.337 4.93108 118.337 7.10267C118.337 9.27425 117.621 10.8999 116.195 11.9796C114.77 13.0654 112.823 13.6053 110.354 13.6053H105.768V24.8696H103.305V0.630371H103.299ZM105.762 11.3488H109.735C110.833 11.3488 111.761 11.2335 112.526 11.0091C113.29 10.7786 113.902 10.4753 114.357 10.0992C114.812 9.72313 115.146 9.28032 115.352 8.76472C115.558 8.24912 115.662 7.69712 115.662 7.10267C115.662 6.53247 115.558 5.99261 115.352 5.47701C115.146 4.96141 114.812 4.51254 114.357 4.12432C113.902 3.7361 113.29 3.43281 112.526 3.21444C111.761 2.99607 110.833 2.88688 109.735 2.88688H105.762V11.3488Z" fill="white"/>
<path id="Vector_6" d="M120.83 24.8696H117.954L128.503 0.624268H130.899L141.447 24.8696H138.572L135.903 18.5004H123.505L120.83 24.8696ZM124.427 16.2439H134.939L129.698 3.50556L124.427 16.2439Z" fill="white"/>
<path id="Vector_7" d="M165.45 21.0361C165.038 21.6548 164.528 22.2372 163.928 22.7831C163.321 23.329 162.63 23.8021 161.859 24.2025C161.083 24.6028 160.246 24.9183 159.342 25.1427C158.438 25.3732 157.486 25.4824 156.485 25.4824C154.683 25.4824 153.009 25.1609 151.468 24.524C149.928 23.8871 148.593 23.0015 147.465 21.8732C146.337 20.7449 145.451 19.4044 144.808 17.8515C144.171 16.2987 143.85 14.6002 143.85 12.7501C143.85 10.9 144.171 9.20157 144.808 7.6487C145.445 6.09584 146.331 4.75528 147.465 3.62702C148.593 2.49877 149.928 1.61315 151.468 0.976232C153.009 0.339314 154.683 0.0178223 156.485 0.0178223C157.989 0.0178223 159.5 0.315051 161.004 0.909507C162.508 1.50396 163.8 2.48664 164.874 3.85146L162.715 5.45892C162.466 5.0707 162.12 4.68249 161.689 4.29427C161.253 3.90605 160.761 3.56636 160.197 3.26913C159.639 2.97191 159.039 2.73534 158.402 2.5473C157.765 2.36532 157.122 2.27433 156.485 2.27433C154.932 2.27433 153.537 2.55943 152.305 3.12962C151.074 3.69981 150.031 4.46411 149.169 5.42252C148.314 6.38093 147.659 7.49706 147.198 8.75876C146.743 10.0265 146.513 11.355 146.513 12.7501C146.513 14.1453 146.743 15.4737 147.198 16.7415C147.653 18.0092 148.308 19.1193 149.169 20.0777C150.025 21.0361 151.068 21.8004 152.305 22.3706C153.537 22.9408 154.932 23.2259 156.485 23.2259C157.122 23.2259 157.759 23.1713 158.383 23.056C159.008 22.9408 159.627 22.7467 160.234 22.4737C160.84 22.2008 161.41 21.8307 161.944 21.3637C162.478 20.8966 162.975 20.3082 163.436 19.5985L165.45 21.0361Z" fill="white"/>
<path id="Vector_8" d="M173.773 11.1425H173.809H174.118L185.522 0.630371H189.046L176.824 11.6217L189.732 24.8757H186.105L174.185 12.38H173.809H173.773V24.8757H171.31V0.630371H173.773V11.1425Z" fill="white"/>
</g>
</svg>
