<svg width="358" height="29" viewBox="0 0 358 29" fill="none" xmlns="http://www.w3.org/2000/svg">
<g clip-path="url(#clip0_2_1135)">
<path d="M147.522 0.557129V19.901H147.443L135.607 0.557129H127.277V28.39H133.407V8.57564H133.487L145.634 28.39H153.652V5.97791H161.426V28.39H167.555V5.97791H175.501V0.557129H147.522Z" fill="white"/>
<path d="M147.522 0.557129V19.901H147.443L135.607 0.557129H127.277V28.39H133.407V8.57564H133.487L145.634 28.39H153.652V5.97791H161.426V28.39H167.555V5.97791H175.501V0.557129H147.522Z" fill="white"/>
<path d="M185.488 7.15749L179.901 12.0746L176.562 8.22442L185.64 0.557129H191.147V28.39H185.488V7.15749Z" fill="white"/>
<path d="M147.522 0.557129V19.901H147.443L135.607 0.557129H127.277V28.39H133.407V8.57564H133.487L145.634 28.39H153.652V5.97791H161.426V28.39H167.555V5.97791H175.501V0.557129H147.522Z" fill="white"/>
<path d="M206.627 10.8818H201.326L201.266 12.9361C201.558 12.8367 201.949 12.7837 202.453 12.7837C203.129 12.7837 203.751 12.8831 204.321 13.0885C204.885 13.2873 205.375 13.5855 205.786 13.9633C206.197 14.3476 206.515 14.8115 206.74 15.3615C206.965 15.9116 207.078 16.5212 207.078 17.2038C207.078 17.9593 206.946 18.6286 206.694 19.225C206.435 19.8148 206.077 20.3184 205.627 20.7227C205.176 21.1335 204.639 21.445 204.017 21.6571C203.394 21.8691 202.718 21.9752 201.989 21.9752C200.829 21.9752 199.861 21.6902 199.086 21.1269C198.304 20.5636 197.774 19.7088 197.482 18.5623L200.445 17.8864C200.518 18.3635 200.723 18.7545 201.048 19.0461C201.372 19.3443 201.783 19.4901 202.274 19.4901C202.877 19.4901 203.36 19.3045 203.718 18.9268C204.076 18.5491 204.255 18.0719 204.255 17.4954C204.255 17.058 204.162 16.6935 203.983 16.4086C203.804 16.1236 203.559 15.8983 203.268 15.7326C202.969 15.5603 202.645 15.4477 202.28 15.3814C201.916 15.3218 201.551 15.2886 201.187 15.2886C200.723 15.2886 200.252 15.335 199.782 15.4212C199.311 15.5073 198.854 15.6266 198.417 15.779L198.569 8.40332H206.647V10.895L206.627 10.8818Z" fill="#A79775"/>
<path d="M211.982 10.9945H208.172V8.39014H218.735V10.9945H214.924V21.7499H211.982V10.9945Z" fill="#A79775"/>
<path d="M220.226 8.39014H223.168V13.3735H228.887V8.39014H231.829V21.7499H228.887V15.9779H223.168V21.7499H220.226V8.39014Z" fill="#A79775"/>
<path d="M201.193 28.0454C200.962 28.1647 200.716 28.2575 200.465 28.3105C200.213 28.3635 199.954 28.39 199.689 28.39C199.411 28.39 199.152 28.3437 198.914 28.2575C198.675 28.1714 198.476 28.0454 198.304 27.8798C198.132 27.7141 197.999 27.5219 197.9 27.2834C197.807 27.0514 197.754 26.793 197.754 26.508C197.754 26.2231 197.801 25.9646 197.9 25.7327C197.993 25.5007 198.132 25.3019 198.304 25.1362C198.476 24.9706 198.682 24.8447 198.914 24.7585C199.152 24.6724 199.404 24.626 199.689 24.626C199.974 24.626 200.239 24.6591 200.478 24.732C200.716 24.7983 200.928 24.9176 201.114 25.0899L200.557 25.6995C200.451 25.5869 200.325 25.5073 200.193 25.4477C200.06 25.3881 199.888 25.3616 199.689 25.3616C199.524 25.3616 199.371 25.3881 199.232 25.4477C199.093 25.5073 198.98 25.5869 198.881 25.6863C198.781 25.7857 198.708 25.9116 198.655 26.0508C198.602 26.1899 198.576 26.3423 198.576 26.508C198.576 26.6737 198.602 26.8327 198.655 26.9719C198.708 27.1111 198.781 27.2303 198.881 27.3364C198.98 27.4424 199.093 27.5219 199.232 27.5749C199.371 27.6346 199.524 27.6611 199.689 27.6611C199.855 27.6611 200.007 27.6412 200.133 27.6014C200.259 27.5617 200.359 27.5219 200.431 27.4822V26.899H199.789V26.17H201.187V28.0388L201.193 28.0454Z" fill="#A79775"/>
<path d="M202.022 24.7188H204.454V25.4477H202.811V26.117H204.361V26.846H202.811V27.5749H204.547V28.3039H202.022V24.7254V24.7188Z" fill="#A79775"/>
<path d="M205.276 24.7188H206.349L207.873 27.2038H207.887V24.7188H208.675V28.2973H207.641L206.077 25.7525H206.064V28.2973H205.276V24.7188Z" fill="#A79775"/>
<path d="M209.523 24.7188H211.956V25.4477H210.312V26.117H211.863V26.846H210.312V27.5749H212.048V28.3039H209.523V24.7254V24.7188Z" fill="#A79775"/>
<path d="M212.777 24.7188H214.162C214.341 24.7188 214.513 24.7386 214.679 24.7718C214.845 24.8049 214.984 24.8645 215.11 24.9507C215.236 25.0302 215.329 25.1429 215.401 25.282C215.474 25.4212 215.507 25.5935 215.507 25.8056C215.507 26.0574 215.441 26.2761 215.309 26.4484C215.176 26.6207 214.984 26.7399 214.732 26.7863L215.64 28.2973H214.692L213.943 26.8659H213.553V28.2973H212.764V24.7188H212.777ZM213.566 26.1965H214.03C214.103 26.1965 214.175 26.1965 214.255 26.1899C214.334 26.1833 214.407 26.17 214.467 26.1435C214.533 26.117 214.586 26.0773 214.626 26.0242C214.666 25.9712 214.692 25.8917 214.692 25.7989C214.692 25.7062 214.672 25.6333 214.639 25.5802C214.6 25.5272 214.553 25.4875 214.5 25.4543C214.441 25.4278 214.374 25.4079 214.301 25.3947C214.228 25.3814 214.156 25.3814 214.083 25.3814H213.566V26.1965Z" fill="#A79775"/>
<path d="M217.33 24.7188H217.979L219.537 28.2973H218.649L218.337 27.5418H216.946L216.647 28.2973H215.779L217.323 24.7188H217.33ZM217.635 25.7592L217.197 26.8725H218.072L217.635 25.7592Z" fill="#A79775"/>
<path d="M220.226 25.4146H219.205V24.7188H222.035V25.4146H221.014V28.2973H220.226V25.4146Z" fill="#A79775"/>
<path d="M222.525 24.7188H223.314V28.2973H222.525V24.7188Z" fill="#A79775"/>
<path d="M223.944 26.508C223.944 26.2231 223.99 25.9646 224.089 25.7327C224.182 25.5007 224.321 25.3019 224.494 25.1362C224.666 24.9706 224.871 24.8447 225.103 24.7585C225.342 24.6724 225.594 24.626 225.879 24.626C226.164 24.626 226.415 24.6724 226.654 24.7585C226.893 24.8447 227.091 24.9706 227.264 25.1362C227.436 25.3019 227.568 25.4941 227.668 25.7327C227.761 25.9646 227.814 26.2231 227.814 26.508C227.814 26.793 227.767 27.0514 227.668 27.2834C227.568 27.5153 227.436 27.7141 227.264 27.8798C227.091 28.0454 226.886 28.1714 226.654 28.2575C226.415 28.3437 226.164 28.39 225.879 28.39C225.594 28.39 225.342 28.3437 225.103 28.2575C224.865 28.1714 224.666 28.0454 224.494 27.8798C224.321 27.7141 224.189 27.5219 224.089 27.2834C223.997 27.0514 223.944 26.793 223.944 26.508ZM224.759 26.508C224.759 26.6737 224.785 26.8327 224.838 26.9719C224.891 27.1111 224.964 27.2303 225.064 27.3364C225.163 27.4424 225.276 27.5219 225.415 27.5749C225.554 27.628 225.706 27.6611 225.872 27.6611C226.038 27.6611 226.19 27.6346 226.329 27.5749C226.468 27.5153 226.581 27.4358 226.681 27.3364C226.78 27.2303 226.853 27.1111 226.906 26.9719C226.959 26.8327 226.985 26.6803 226.985 26.508C226.985 26.3357 226.959 26.1899 226.906 26.0508C226.853 25.9116 226.78 25.7857 226.681 25.6863C226.581 25.5802 226.468 25.5007 226.329 25.4477C226.19 25.3881 226.038 25.3616 225.872 25.3616C225.706 25.3616 225.554 25.3881 225.415 25.4477C225.276 25.5073 225.163 25.5869 225.064 25.6863C224.964 25.7923 224.891 25.9116 224.838 26.0508C224.785 26.1899 224.759 26.3423 224.759 26.508Z" fill="#A79775"/>
<path d="M228.443 24.7188H229.517L231.034 27.2038H231.047V24.7188H231.836V28.2973H230.802L229.238 25.7525H229.232V28.2973H228.443V24.7188Z" fill="#A79775"/>
</g>
<defs>
<clipPath id="clip0_2_1135">
<rect width="357.851" height="28.31" fill="white" transform="translate(0.0744629 0.0800781)"/>
</clipPath>
</defs>
</svg>
