<svg width="358" height="31" viewBox="0 0 358 31" fill="none" xmlns="http://www.w3.org/2000/svg">
<g clip-path="url(#clip0_2_1211)">
<path d="M81.9546 1.35107H90.5149L102.654 21.1381H102.724V1.35107H108.969V29.8387H100.759L88.3398 9.56057H88.2696V29.8387H82.0248C81.9546 29.8387 81.9546 1.35107 81.9546 1.35107Z" fill="white"/>
<path d="M117.038 6.89424H108.899V1.35107H131.422V6.89424H123.283V29.8387H117.038V6.89424Z" fill="white"/>
<path d="M135.071 1.35107H141.316V11.9462H153.525V1.35107H159.769V29.8387H153.525V17.5596H141.316V29.9089H135.071V1.35107Z" fill="white"/>
<path d="M174.013 18.8225H164.12V13.981H174.013V18.8225Z" fill="white"/>
<path d="M184.608 8.08707L178.925 13.1391L175.487 9.20974L184.819 1.35107H190.432V29.8387H184.608V8.08707Z" fill="white"/>
<path d="M194.151 15.5949C194.151 13.9109 194.291 12.1567 194.642 10.4727C194.923 8.71853 195.484 7.17486 196.326 5.70136C197.168 4.22786 198.221 3.1052 199.554 2.19303C200.887 1.28086 202.641 0.859863 204.816 0.859863C206.992 0.859863 208.676 1.28086 210.079 2.19303C211.482 3.1052 212.535 4.22786 213.307 5.70136C214.078 7.17486 214.64 8.71853 214.991 10.4727C215.341 12.2269 215.482 13.9109 215.482 15.5949C215.482 17.2789 215.341 19.033 214.991 20.717C214.71 22.4712 214.149 24.0149 213.307 25.4884C212.535 26.8917 211.412 28.0845 210.079 28.9967C208.676 29.9089 206.992 30.3299 204.816 30.3299C202.711 30.3299 200.957 29.9089 199.554 28.9967C198.151 28.0845 197.098 26.9619 196.326 25.4884C195.554 24.085 194.993 22.4712 194.642 20.717C194.291 19.033 194.151 17.2789 194.151 15.5949ZM200.185 15.5949C200.185 16.3667 200.185 17.2789 200.256 18.2612C200.326 19.3137 200.536 20.296 200.817 21.2784C201.098 22.2607 201.589 23.0325 202.15 23.7342C202.782 24.4359 203.624 24.7165 204.676 24.7165C205.799 24.7165 206.571 24.3657 207.202 23.7342C207.834 23.0325 208.255 22.2607 208.605 21.2784C208.886 20.296 209.097 19.3137 209.167 18.2612C209.237 17.2087 209.237 16.2965 209.237 15.5949C209.237 14.8932 209.237 13.9109 209.167 12.9285C209.097 11.876 208.886 10.8937 208.605 9.91136C208.325 8.92903 207.834 8.1572 207.202 7.45553C206.571 6.75386 205.729 6.4732 204.676 6.4732C203.624 6.4732 202.711 6.82403 202.15 7.45553C201.519 8.1572 201.098 8.92903 200.817 9.91136C200.536 10.8937 200.326 11.876 200.256 12.9285C200.185 13.981 200.185 14.823 200.185 15.5949Z" fill="white"/>
<path d="M218.359 15.5949C218.359 13.9109 218.499 12.1567 218.85 10.4727C219.13 8.71853 219.692 7.17486 220.534 5.70136C221.376 4.22786 222.428 3.1052 223.761 2.19303C225.165 1.28086 226.849 0.859863 229.024 0.859863C231.129 0.859863 232.883 1.28086 234.286 2.19303C235.69 3.1052 236.742 4.22786 237.514 5.70136C238.286 7.17486 238.847 8.71853 239.198 10.4727C239.479 12.2269 239.689 13.9109 239.689 15.5949C239.689 17.2789 239.549 19.033 239.198 20.717C238.917 22.4712 238.356 24.0149 237.514 25.4884C236.742 26.8917 235.62 28.0845 234.286 28.9967C232.883 29.9089 231.199 30.3299 229.024 30.3299C226.919 30.3299 225.165 29.9089 223.761 28.9967C222.358 28.0845 221.306 26.9619 220.534 25.4884C219.762 24.085 219.201 22.4712 218.85 20.717C218.499 19.033 218.359 17.2789 218.359 15.5949ZM224.393 15.5949C224.393 16.3667 224.393 17.2789 224.463 18.2612C224.533 19.3137 224.744 20.296 225.024 21.2784C225.305 22.2607 225.796 23.0325 226.358 23.7342C226.989 24.4359 227.831 24.7165 228.884 24.7165C229.936 24.7165 230.778 24.3657 231.41 23.7342C232.041 23.0325 232.462 22.2607 232.813 21.2784C233.094 20.296 233.304 19.3137 233.374 18.2612C233.444 17.2087 233.444 16.2965 233.444 15.5949C233.444 14.8932 233.444 13.9109 233.374 12.9285C233.304 11.876 233.094 10.8937 232.813 9.91136C232.532 8.92903 232.041 8.1572 231.41 7.45553C230.778 6.75386 229.936 6.4732 228.884 6.4732C227.831 6.4732 226.919 6.82403 226.358 7.45553C225.726 8.1572 225.305 8.92903 225.024 9.91136C224.744 10.8937 224.533 11.876 224.463 12.9285C224.393 13.981 224.393 14.823 224.393 15.5949Z" fill="white"/>
<path d="M244.04 1.42139H253.512L260.038 19.8752H260.108L266.633 1.42139H276.036V29.6986H269.791V8.01705H269.721L262.283 29.6986H257.512L250.355 8.01705H250.284V29.6986H244.04V1.42139Z" fill="#AC9870"/>
</g>
<defs>
<clipPath id="clip0_2_1211">
<rect width="357.85" height="29.47" fill="white" transform="translate(0.0700684 0.859863)"/>
</clipPath>
</defs>
</svg>
