<svg width="358" height="27" viewBox="0 0 358 27" fill="none" xmlns="http://www.w3.org/2000/svg">
<g clip-path="url(#clip0_2_1075)">
<path d="M239.366 16.5253C239.366 17.8296 239.214 19.0733 238.923 20.2563C238.625 21.4454 238.128 22.4949 237.43 23.4049C236.733 24.321 235.823 25.049 234.688 25.595C233.554 26.141 232.17 26.414 230.526 26.414C228.882 26.414 227.493 26.141 226.365 25.595C225.236 25.049 224.32 24.3149 223.623 23.4049C222.925 22.4949 222.427 21.4393 222.13 20.2563C221.833 19.0672 221.687 17.8236 221.687 16.5253V1.55884H223.95V15.9429C223.95 16.8104 224.029 17.7326 224.193 18.7154C224.351 19.6982 224.666 20.6082 225.133 21.4575C225.6 22.3008 226.262 22.9984 227.117 23.5444C227.972 24.0904 229.107 24.3634 230.526 24.3634C231.946 24.3634 233.08 24.0904 233.936 23.5444C234.791 22.9984 235.453 22.3008 235.92 21.4575C236.387 20.6142 236.702 19.6982 236.86 18.7154C237.018 17.7326 237.103 16.8104 237.103 15.9429V1.55884H239.366V16.5253Z" fill="#AD9970"/>
<path d="M245.772 21.3179C246.366 22.3431 247.137 23.1075 248.083 23.6111C249.03 24.1146 250.109 24.3633 251.317 24.3633C252.069 24.3633 252.779 24.2481 253.44 24.0236C254.101 23.7931 254.678 23.4776 255.169 23.0651C255.66 22.6525 256.049 22.1551 256.334 21.5727C256.619 20.9903 256.765 20.3351 256.765 19.601C256.765 18.7577 256.589 18.0601 256.237 17.5141C255.885 16.9681 255.412 16.5131 254.817 16.1612C254.223 15.8093 253.555 15.506 252.815 15.2512C252.075 15.0025 251.311 14.7477 250.522 14.4989C249.733 14.2502 248.969 13.9651 248.229 13.6435C247.489 13.322 246.821 12.9095 246.227 12.3938C245.632 11.8781 245.159 11.2351 244.807 10.4585C244.455 9.68201 244.279 8.72347 244.279 7.58294C244.279 6.50914 244.492 5.55667 244.91 4.72554C245.335 3.89441 245.905 3.19674 246.621 2.63861C247.343 2.08047 248.168 1.65581 249.102 1.37067C250.031 1.08554 251.007 0.939941 252.039 0.939941C253.361 0.939941 254.593 1.17654 255.721 1.64367C256.85 2.11081 257.826 2.89341 258.651 3.99147L256.698 5.39288C256.128 4.59207 255.46 3.99754 254.696 3.59714C253.931 3.19674 253.021 2.99654 251.972 2.99654C251.244 2.99654 250.546 3.09361 249.885 3.28774C249.224 3.48187 248.647 3.76701 248.156 4.14314C247.665 4.51927 247.27 4.99247 246.973 5.56274C246.676 6.13301 246.53 6.80641 246.53 7.58294C246.53 8.79627 246.84 9.72447 247.452 10.3736C248.071 11.0227 248.842 11.5384 249.764 11.9145C250.686 12.2907 251.693 12.6243 252.779 12.9095C253.865 13.1946 254.866 13.5768 255.794 14.0561C256.716 14.5353 257.487 15.2027 258.105 16.0581C258.724 16.9135 259.027 18.0965 259.027 19.601C259.027 20.6991 258.821 21.6697 258.409 22.513C257.996 23.3563 257.444 24.0721 256.746 24.6545C256.049 25.2369 255.242 25.6737 254.332 25.971C253.416 26.2683 252.469 26.4139 251.487 26.4139C249.891 26.4139 248.417 26.1348 247.07 25.5767C245.723 25.0185 244.571 24.0782 243.612 22.7496L245.772 21.3118V21.3179Z" fill="#AD9970"/>
<path d="M263.717 1.55884H270.706C271.616 1.55884 272.544 1.63164 273.478 1.7833C274.413 1.93497 275.256 2.2383 275.996 2.70544C276.736 3.17257 277.343 3.8217 277.81 4.6589C278.277 5.49004 278.514 6.59417 278.514 7.96524C278.514 9.19677 278.15 10.2706 277.416 11.1866C276.688 12.1027 275.602 12.7033 274.164 13.0006V13.0673C274.965 13.134 275.693 13.3221 276.354 13.6315C277.015 13.9409 277.585 14.3534 278.065 14.863C278.544 15.3787 278.914 15.9854 279.175 16.6952C279.436 17.405 279.569 18.1815 279.569 19.0248C279.569 20.4201 279.302 21.5546 278.762 22.4342C278.228 23.3139 277.549 24.0055 276.742 24.509C275.929 25.0126 275.05 25.3523 274.103 25.5343C273.157 25.7163 272.271 25.8073 271.452 25.8073H263.711V1.55884H263.717ZM265.98 12.036H270.669C271.834 12.036 272.781 11.8964 273.515 11.6052C274.243 11.3201 274.819 10.9743 275.225 10.5618C275.632 10.1492 275.911 9.71244 276.044 9.2453C276.184 8.77817 276.251 8.34744 276.251 7.95917C276.251 7.1159 276.105 6.41217 275.82 5.85404C275.535 5.2959 275.153 4.84697 274.673 4.51937C274.194 4.1857 273.636 3.95517 272.993 3.81564C272.356 3.6761 271.683 3.60937 270.973 3.60937H265.974V12.036H265.98ZM265.98 23.7507H271.149C272.471 23.7507 273.539 23.593 274.352 23.2714C275.165 22.9499 275.784 22.5495 276.22 22.0702C276.651 21.591 276.942 21.0814 277.094 20.5475C277.24 20.0136 277.318 19.5283 277.318 19.0915C277.318 18.1997 277.149 17.4353 276.803 16.7983C276.463 16.1613 276.014 15.6396 275.468 15.2392C274.922 14.8388 274.297 14.5476 273.6 14.3656C272.902 14.1836 272.198 14.0926 271.494 14.0926H265.98V23.7507Z" fill="#AD9970"/>
<path d="M78.4047 1.55859H87.4137C88.6695 1.55859 89.8586 1.67386 90.9749 1.89833C92.0911 2.12886 93.0679 2.52319 93.9051 3.08133C94.7362 3.63946 95.3975 4.39173 95.8889 5.34419C96.3803 6.29059 96.6229 7.48573 96.6229 8.92353C96.6229 10.3613 96.3924 11.5261 95.9374 12.4847C95.4824 13.4432 94.8515 14.2076 94.0567 14.7779C93.2559 15.3481 92.3095 15.7546 91.2115 15.9912C90.1134 16.2339 88.9304 16.3491 87.6503 16.3491H83.7434V25.801H78.3987V1.55859H78.4047ZM83.7495 11.8355H87.3106C87.7899 11.8355 88.2509 11.7931 88.6999 11.696C89.1427 11.605 89.5431 11.4533 89.9011 11.2349C90.2529 11.0165 90.5381 10.7193 90.7565 10.3431C90.9749 9.96699 91.0841 9.49379 91.0841 8.92353C91.0841 8.30473 90.9385 7.81333 90.6533 7.43113C90.3682 7.05499 90.0042 6.76379 89.5553 6.55753C89.1124 6.35126 88.6149 6.22386 88.0629 6.16319C87.5169 6.10859 86.9891 6.07826 86.4855 6.07826H83.7434V11.8295L83.7495 11.8355Z" fill="black"/>
<path d="M98.6128 13.6799C98.6128 11.7386 98.9404 9.97927 99.5895 8.40801C100.239 6.83068 101.149 5.48994 102.313 4.38581C103.478 3.28167 104.861 2.42627 106.457 1.83174C108.053 1.23721 109.8 0.939941 111.699 0.939941C113.597 0.939941 115.339 1.23721 116.94 1.83174C118.536 2.42627 119.919 3.27561 121.084 4.38581C122.249 5.49601 123.159 6.83674 123.808 8.40801C124.457 9.98534 124.784 11.7447 124.784 13.6799C124.784 15.6152 124.457 17.3806 123.808 18.9519C123.159 20.5292 122.249 21.8699 121.084 22.9741C119.919 24.0843 118.536 24.9336 116.94 25.5281C115.345 26.1227 113.597 26.4199 111.699 26.4199C109.8 26.4199 108.059 26.1227 106.457 25.5281C104.861 24.9336 103.478 24.0843 102.313 22.9741C101.149 21.8699 100.239 20.5231 99.5895 18.9519C98.9404 17.3745 98.6128 15.6213 98.6128 13.6799ZM104.164 13.6799C104.164 14.8205 104.34 15.8639 104.692 16.8164C105.043 17.7628 105.553 18.5879 106.214 19.2795C106.876 19.9771 107.67 20.5171 108.592 20.9053C109.515 21.2936 110.552 21.4877 111.693 21.4877C112.833 21.4877 113.864 21.2936 114.793 20.9053C115.715 20.5171 116.509 19.9771 117.171 19.2795C117.832 18.5818 118.342 17.7628 118.693 16.8164C119.045 15.87 119.221 14.8265 119.221 13.6799C119.221 12.5333 119.045 11.5202 118.693 10.5617C118.342 9.60314 117.832 8.77808 117.171 8.08041C116.509 7.38274 115.715 6.84281 114.793 6.45454C113.87 6.06628 112.833 5.87214 111.693 5.87214C110.552 5.87214 109.521 6.06628 108.592 6.45454C107.67 6.84281 106.876 7.38274 106.214 8.08041C105.553 8.77808 105.043 9.60314 104.692 10.5617C104.34 11.5202 104.164 12.5576 104.164 13.6799Z" fill="black"/>
<path d="M128.339 1.55859H136.353C138.295 1.55859 140.139 1.77699 141.886 2.20773C143.633 2.64453 145.156 3.34219 146.46 4.31286C147.765 5.28353 148.796 6.54539 149.561 8.09846C150.325 9.65153 150.707 11.5322 150.707 13.7465C150.707 15.7121 150.337 17.4411 149.597 18.9335C148.857 20.432 147.856 21.6878 146.6 22.7009C145.344 23.7201 143.894 24.4906 142.25 25.0123C140.606 25.5401 138.883 25.801 137.081 25.801H128.345V1.55859H128.339ZM133.684 20.8749H136.457C137.688 20.8749 138.835 20.7475 139.896 20.4987C140.958 20.25 141.874 19.8314 142.651 19.249C143.427 18.6666 144.04 17.9022 144.483 16.9558C144.926 16.0094 145.15 14.8507 145.15 13.4796C145.15 12.2905 144.926 11.2592 144.483 10.3795C144.04 9.49986 143.439 8.77793 142.687 8.20766C141.935 7.63739 141.049 7.20666 140.03 6.92153C139.011 6.63639 137.949 6.49079 136.827 6.49079H133.678V20.8749H133.684Z" fill="black"/>
<path d="M154.262 1.55859H162.343L167.925 17.3805H167.991L173.609 1.55859H181.66V25.801H176.315V7.20666H176.248L169.878 25.801H165.801L159.674 7.20666H159.607V25.801H154.262V1.55859Z" fill="black"/>
<path d="M186.458 1.55859H191.803V25.801H186.458V1.55859Z" fill="black"/>
<path d="M212.448 7.8559C211.92 7.2189 211.277 6.72751 210.512 6.3817C209.748 6.04197 208.862 5.86604 207.861 5.86604C206.86 5.86604 205.926 6.06017 205.071 6.44844C204.215 6.8367 203.475 7.37664 202.844 8.07431C202.213 8.77197 201.728 9.59704 201.37 10.5556C201.018 11.5141 200.842 12.5515 200.842 13.6738C200.842 14.7962 201.018 15.8578 201.37 16.8103C201.722 17.7567 202.207 18.5818 202.826 19.2734C203.445 19.971 204.167 20.511 204.998 20.8992C205.829 21.2875 206.727 21.4816 207.685 21.4816C208.783 21.4816 209.754 21.2511 210.597 20.7961C211.441 20.3411 212.138 19.698 212.684 18.879L217.137 22.2036C216.112 23.6414 214.808 24.703 213.23 25.3886C211.653 26.0741 210.033 26.4138 208.365 26.4138C206.472 26.4138 204.725 26.1166 203.123 25.522C201.528 24.9275 200.145 24.0782 198.98 22.968C197.815 21.8638 196.905 20.517 196.256 18.9458C195.607 17.3684 195.279 15.6152 195.279 13.6738C195.279 11.7325 195.607 9.97317 196.256 8.40191C196.905 6.82457 197.815 5.48384 198.98 4.3797C200.145 3.27557 201.528 2.42017 203.123 1.82564C204.719 1.2311 206.466 0.933838 208.365 0.933838C209.05 0.933838 209.76 0.994505 210.506 1.1219C211.247 1.2493 211.981 1.4495 212.696 1.7225C213.412 1.9955 214.104 2.3595 214.771 2.82057C215.433 3.27557 216.027 3.8337 216.555 4.50104L212.448 7.8559Z" fill="black"/>
</g>
<defs>
<clipPath id="clip0_2_1075">
<rect width="357.933" height="25.48" fill="white" transform="translate(0.0234375 0.939941)"/>
</clipPath>
</defs>
</svg>
