<svg width="202" height="36" viewBox="0 0 202 36" fill="none" xmlns="http://www.w3.org/2000/svg">
<path id="Vector" d="M0.842041 0.310059V35.4576L201.158 35.5001V0.310059H0.842041ZM167.922 33.3887H2.90491V2.37899H167.922V33.3887ZM173.091 28.2194L181.015 17.8869L173.091 7.55434H180.141L188.065 17.8869L180.141 28.2194H173.091ZM188.945 28.2194L185.687 23.9662L189.212 19.3733L195.995 28.2194H188.945ZM189.206 16.4004L185.681 11.8075L188.939 7.55434H195.989L189.206 16.4004ZM19.8204 12.6387C19.4503 12.1715 18.9528 11.8257 18.3218 11.6012C17.6908 11.3767 17.0901 11.2675 16.5259 11.2675C16.1982 11.2675 15.8524 11.3039 15.5066 11.3828C15.1547 11.4616 14.827 11.583 14.5176 11.7468C14.2082 11.9106 13.9534 12.129 13.7592 12.4021C13.5651 12.6751 13.468 13.0027 13.468 13.391C13.468 14.016 13.6985 14.4892 14.1657 14.8168C14.6329 15.1445 15.2214 15.4296 15.9313 15.6602C16.6411 15.8907 17.4056 16.1274 18.2186 16.3579C19.0316 16.5885 19.7961 16.9222 20.506 17.3469C21.2158 17.7716 21.8044 18.348 22.2715 19.0639C22.7387 19.7859 22.9693 20.7445 22.9693 21.9519C22.9693 23.1593 22.7569 24.0997 22.3261 24.9552C21.8954 25.8107 21.319 26.5205 20.5909 27.0848C19.8628 27.649 19.0195 28.0677 18.0548 28.3407C17.0901 28.6137 16.0769 28.7472 15.0091 28.7472C13.6682 28.7472 12.4244 28.5409 11.2777 28.1344C10.131 27.7279 9.06315 27.0666 8.07419 26.1504L11.308 22.595C11.7752 23.22 12.3637 23.6993 13.0736 24.039C13.7835 24.3788 14.5176 24.5487 15.276 24.5487C15.6461 24.5487 16.0223 24.5062 16.3984 24.4152C16.7746 24.3303 17.1144 24.1968 17.4177 24.0208C17.7211 23.8449 17.9638 23.6204 18.1458 23.3534C18.3278 23.0804 18.4249 22.7589 18.4249 22.3888C18.4249 21.7699 18.1883 21.2784 17.709 20.9144C17.2297 20.5564 16.6351 20.247 15.9191 19.9983C15.1971 19.7434 14.4205 19.4947 13.5893 19.2399C12.752 18.985 11.9754 18.6453 11.2595 18.2206C10.5375 17.7958 9.94291 17.2316 9.4636 16.5278C8.99035 15.8301 8.74766 14.9078 8.74766 13.7611C8.74766 12.6144 8.96608 11.6801 9.40292 10.8489C9.83976 10.0116 10.4222 9.31384 11.1503 8.74959C11.8784 8.18534 12.7217 7.76063 13.6743 7.48154C14.6268 7.20244 15.6097 7.05683 16.6169 7.05683C17.7818 7.05683 18.9103 7.22065 19.9963 7.55434C21.0824 7.88198 22.0653 8.44016 22.9389 9.21677L19.8204 12.6266V12.6387ZM30.341 11.6194H24.4497V7.59682H40.7766V11.6194H34.8853V28.2376H30.3349V11.6194H30.341ZM43.0822 7.59682H51.0667C52.1163 7.59682 53.1113 7.69996 54.0517 7.90018C54.9922 8.10646 55.8173 8.44623 56.5272 8.91947C57.237 9.39879 57.8013 10.0358 58.2199 10.8428C58.6386 11.6497 58.8449 12.6569 58.8449 13.8582C58.8449 15.3143 58.4687 16.5521 57.7103 17.5774C56.9519 18.5967 55.8416 19.2459 54.3854 19.5129L59.6336 28.2315H54.1852L49.8714 19.9801H47.6265V28.2315H43.0761V7.59075L43.0822 7.59682ZM47.6326 16.1395H50.3143C50.7208 16.1395 51.1577 16.1274 51.6127 16.097C52.0678 16.0667 52.4803 15.9817 52.8504 15.8361C53.2205 15.6905 53.5239 15.46 53.7666 15.1505C54.0093 14.8411 54.1306 14.4043 54.1306 13.84C54.1306 13.3182 54.0214 12.8996 53.8091 12.5841C53.5967 12.2747 53.3237 12.038 52.99 11.8682C52.6623 11.7043 52.2801 11.5891 51.8554 11.5345C51.4307 11.4738 51.0121 11.4495 50.5995 11.4495H47.6265V16.1456L47.6326 16.1395ZM62.1515 7.59682H76.1729V11.7953H66.702V15.642H75.6511V19.8405H66.702V24.039H76.7008V28.2376H62.1515V7.59075V7.59682ZM87.1364 7.59682H90.8981L99.8776 28.2376H94.7447L92.967 23.8631H84.9522L83.2352 28.2376H78.2236L87.1425 7.59682H87.1364ZM88.8838 13.6034L86.378 20.0165H91.4199L88.8838 13.6034ZM101.94 7.59682H108.821L113.571 21.0661H113.632L118.413 7.59682H125.263V28.2315H120.713V12.4021H120.652L115.228 28.2315H111.757L106.539 12.4021H106.479V28.2315H101.928V7.59075L101.94 7.59682ZM128.739 7.59682H142.761V11.7953H133.29V15.642H142.239V19.8405H133.29V24.039H143.289V28.2376H128.739V7.59075V7.59682ZM146.183 7.59682H154.167C155.217 7.59682 156.212 7.69996 157.152 7.90018C158.093 8.10646 158.918 8.44623 159.628 8.91947C160.338 9.39879 160.902 10.0358 161.321 10.8428C161.739 11.6497 161.946 12.6569 161.946 13.8582C161.946 15.3143 161.563 16.5521 160.811 17.5774C160.053 18.5967 158.942 19.2459 157.486 19.5129L162.734 28.2315H157.286L152.972 19.9801H150.727V28.2315H146.177V7.59075L146.183 7.59682ZM150.733 16.1395H153.415C153.821 16.1395 154.258 16.1274 154.713 16.097C155.168 16.0667 155.581 15.9817 155.951 15.8361C156.321 15.6905 156.625 15.46 156.867 15.1505C157.11 14.8411 157.231 14.4043 157.231 13.84C157.231 13.3182 157.122 12.8996 156.91 12.5841C156.697 12.2747 156.424 12.038 156.091 11.8682C155.763 11.7043 155.381 11.5891 154.956 11.5345C154.525 11.4738 154.113 11.4495 153.7 11.4495H150.727V16.1456L150.733 16.1395Z" fill="#DB0032"/>
</svg>
