<svg width="232" height="37" viewBox="0 0 232 37" fill="none" xmlns="http://www.w3.org/2000/svg">
<g id="Group">
<g id="Group_2">
<path id="Vector" d="M0.564697 7.01855H6.04342L9.68376 21.6527H9.7505L14.5194 7.01855H19.1911L23.9296 22.035H23.9964L27.8309 7.01855H32.9213L26.2473 29.8375H21.7697L16.74 14.0444H16.6732L11.6435 29.8375H7.3236L0.564697 7.01855Z" fill="black"/>
<path id="Vector_2" d="M35.1116 7.01855H40.1413V29.8314H35.1116V7.01855Z" fill="black"/>
<path id="Vector_3" d="M44.716 7.01855H53.5438C54.7027 7.01855 55.8069 7.13383 56.8444 7.35832C57.888 7.58281 58.7981 7.95898 59.5807 8.48683C60.3634 9.01468 60.9883 9.72454 61.4494 10.6164C61.9105 11.5083 62.1411 12.6186 62.1411 13.9534C62.1411 15.5673 61.7225 16.9324 60.8852 18.0609C60.0479 19.1894 58.8223 19.9054 57.2084 20.2027L63.0087 29.8375H56.9839L52.2151 20.7184H49.7336V29.8314H44.7039V7.01855H44.716ZM49.7457 16.4592H52.7126C53.1616 16.4592 53.6409 16.441 54.1445 16.4106C54.6481 16.3803 55.1031 16.2832 55.5157 16.1194C55.9222 15.9556 56.2619 15.7068 56.5289 15.361C56.7959 15.0152 56.9293 14.5359 56.9293 13.9109C56.9293 13.3285 56.8141 12.8674 56.5774 12.5276C56.3408 12.1818 56.0375 11.9209 55.6734 11.7389C55.3094 11.5569 54.8908 11.4355 54.4175 11.3688C53.9443 11.302 53.4832 11.2717 53.0342 11.2717H49.7457V16.4592Z" fill="black"/>
<path id="Vector_4" d="M65.7937 7.01855H81.2955V11.66H70.8234V15.9131H80.7191V20.5546H70.8234V25.196H81.878V29.8375H65.7937V7.01855Z" fill="black"/>
<path id="Vector_5" d="M86.0945 7.01855H91.1242V25.196H100.437V29.8375H86.0945V7.01855Z" fill="black"/>
<path id="Vector_6" d="M103.405 7.01855H118.906V11.66H108.434V15.9131H118.33V20.5546H108.434V25.196H119.489V29.8375H103.405V7.01855Z" fill="black"/>
<path id="Vector_7" d="M134.79 12.5943C134.384 12.0786 133.825 11.6963 133.128 11.4476C132.43 11.1988 131.769 11.0775 131.144 11.0775C130.78 11.0775 130.404 11.1199 130.015 11.2049C129.627 11.2898 129.263 11.4233 128.917 11.6053C128.571 11.7873 128.292 12.03 128.08 12.3334C127.867 12.6368 127.758 13.0008 127.758 13.4316C127.758 14.1172 128.013 14.645 128.529 15.009C129.044 15.3731 129.694 15.6886 130.476 15.9434C131.259 16.1982 132.102 16.4591 133.006 16.7139C133.91 16.9688 134.754 17.3389 135.536 17.8121C136.319 18.2854 136.968 18.9164 137.484 19.7112C138 20.506 138.255 21.5677 138.255 22.9025C138.255 24.1706 138.018 25.2748 137.545 26.2213C137.071 27.1678 136.434 27.9505 135.627 28.5754C134.821 29.2003 133.886 29.6614 132.824 29.9587C131.763 30.2621 130.64 30.4077 129.457 30.4077C127.977 30.4077 126.599 30.1832 125.331 29.7282C124.063 29.2792 122.88 28.5451 121.788 27.5379L125.368 23.6063C125.883 24.2919 126.533 24.8258 127.315 25.202C128.098 25.5782 128.911 25.7663 129.748 25.7663C130.155 25.7663 130.567 25.7177 130.992 25.6207C131.411 25.5236 131.787 25.378 132.121 25.1838C132.454 24.9897 132.721 24.7409 132.928 24.4436C133.134 24.1402 133.231 23.7883 133.231 23.3818C133.231 22.6962 132.97 22.1502 132.442 21.7558C131.914 21.3615 131.253 21.0217 130.458 20.7426C129.663 20.4635 128.802 20.1844 127.88 19.9053C126.957 19.6262 126.096 19.25 125.301 18.7768C124.506 18.3036 123.845 17.6786 123.317 16.9081C122.789 16.1376 122.528 15.1122 122.528 13.8441C122.528 12.6186 122.771 11.5447 123.256 10.6224C123.742 9.70021 124.385 8.9236 125.192 8.30475C125.999 7.67982 126.927 7.21264 127.977 6.90321C129.026 6.59378 130.112 6.43604 131.235 6.43604C132.521 6.43604 133.771 6.61805 134.972 6.98209C136.174 7.34612 137.26 7.95891 138.23 8.82046L134.79 12.5943Z" fill="black"/>
<path id="Vector_8" d="M153.289 12.5943C152.883 12.0786 152.325 11.6963 151.627 11.4476C150.929 11.1988 150.268 11.0775 149.643 11.0775C149.279 11.0775 148.903 11.1199 148.514 11.2049C148.126 11.2898 147.762 11.4233 147.416 11.6053C147.07 11.7873 146.791 12.03 146.579 12.3334C146.366 12.6368 146.257 13.0008 146.257 13.4316C146.257 14.1172 146.512 14.645 147.028 15.009C147.544 15.3731 148.193 15.6886 148.975 15.9434C149.758 16.1982 150.601 16.4591 151.505 16.7139C152.409 16.9688 153.253 17.3389 154.035 17.8121C154.818 18.2854 155.467 18.9164 155.983 19.7112C156.499 20.506 156.754 21.5677 156.754 22.9025C156.754 24.1706 156.517 25.2748 156.044 26.2213C155.57 27.1678 154.933 27.9505 154.126 28.5754C153.32 29.2003 152.385 29.6614 151.323 29.9587C150.262 30.2621 149.139 30.4077 147.956 30.4077C146.476 30.4077 145.098 30.1832 143.83 29.7282C142.562 29.2792 141.379 28.5451 140.287 27.5379L143.867 23.6063C144.382 24.2919 145.032 24.8258 145.814 25.202C146.597 25.5782 147.41 25.7663 148.247 25.7663C148.654 25.7663 149.066 25.7177 149.491 25.6207C149.91 25.5236 150.286 25.378 150.62 25.1838C150.953 24.9897 151.22 24.7409 151.427 24.4436C151.633 24.1402 151.73 23.7883 151.73 23.3818C151.73 22.6962 151.469 22.1502 150.941 21.7558C150.413 21.3615 149.752 21.0217 148.957 20.7426C148.162 20.4635 147.301 20.1844 146.379 19.9053C145.456 19.6262 144.595 19.25 143.8 18.7768C143.005 18.3036 142.344 17.6786 141.816 16.9081C141.288 16.1376 141.027 15.1122 141.027 13.8441C141.027 12.6186 141.27 11.5447 141.755 10.6224C142.241 9.70021 142.884 8.9236 143.691 8.30475C144.498 7.67982 145.426 7.21264 146.476 6.90321C147.525 6.59378 148.611 6.43604 149.734 6.43604C151.02 6.43604 152.27 6.61805 153.471 6.98209C154.673 7.34612 155.759 7.95891 156.729 8.82046L153.289 12.5943Z" fill="black"/>
</g>
<path id="Vector_9" d="M224.179 1.61871H222.972V0.975586H226.151V1.61871H224.944V4.9921H224.185V1.61871H224.179ZM226.921 0.975586H228.08L229.16 4.05774H229.191L230.271 0.975586H231.429V4.9921H230.671V1.64298H230.653L229.482 4.99817H228.869L227.698 1.64298H227.68V4.99817H226.921V0.975586Z" fill="black"/>
<path id="Vector_10" d="M221.194 28.6241C221.194 32.6952 217.863 36.0201 213.798 36.0201H169.568C165.497 36.0201 162.172 32.6892 162.172 28.6241V8.22605C162.172 4.16099 165.503 0.830078 169.568 0.830078H213.798C217.869 0.830078 221.194 4.16099 221.194 8.22605V28.6241Z" fill="#AD9970"/>
<g id="Group_3">
<path id="Vector_11" d="M168.536 7.04297H176.12L181.363 21.8956H181.429L186.702 7.04297H194.255V29.8012H189.238V12.3518H189.171L183.189 29.8073H179.366L173.615 12.3518H173.548V29.8073H168.53V7.04297H168.536Z" fill="white"/>
<path id="Vector_12" d="M198.788 7.04297H214.247V11.6723H203.799V15.9133H213.671V20.5426H203.799V25.1719H214.823V29.8012H198.781V7.04297H198.788Z" fill="white"/>
</g>
</g>
</svg>
