<svg width="1110" height="72" viewBox="0 0 1110 72" fill="none" xmlns="http://www.w3.org/2000/svg">
<path d="M382.507 21.0519C381.559 19.6643 380.215 18.5943 378.65 17.9811C377.033 17.3327 375.305 17.0029 373.563 17.01C372.532 17.0069 371.504 17.128 370.501 17.3707C369.551 17.5874 368.646 17.9694 367.828 18.4991C367.041 19.0253 366.389 19.7286 365.923 20.5525C365.424 21.4676 365.175 22.498 365.201 23.54C365.164 24.302 365.313 25.0616 365.635 25.7531C365.957 26.4446 366.443 27.0469 367.051 27.508C368.417 28.513 369.922 29.3138 371.519 29.8851C373.295 30.5572 375.243 31.2077 377.364 31.8367C379.417 32.4333 381.381 33.3045 383.201 34.4265C384.977 35.5633 386.485 37.0717 387.622 38.8477C388.913 41.0514 389.531 43.5853 389.398 46.1362C389.457 48.6141 388.938 51.0718 387.881 53.3137C386.924 55.2915 385.533 57.0274 383.811 58.3916C382.04 59.772 380.021 60.8017 377.864 61.4253C375.545 62.1073 373.14 62.4469 370.723 62.4335C367.602 62.4431 364.503 61.9078 361.566 60.8519C358.623 59.7677 356.021 57.9192 354.028 55.4965L360.873 48.8555C361.959 50.5251 363.464 51.8806 365.238 52.7864C367.978 54.2241 371.159 54.5743 374.146 53.7669C375.169 53.4905 376.14 53.05 377.022 52.4627C377.878 51.902 378.593 51.152 379.112 50.2706C379.656 49.3399 379.931 48.2772 379.908 47.1998C379.955 46.3888 379.818 45.5775 379.505 44.8276C379.193 44.0776 378.714 43.4086 378.104 42.8711C376.774 41.7932 375.278 40.9373 373.674 40.3368C371.898 39.6339 369.974 38.9772 367.837 38.3482C365.785 37.7579 363.82 36.8996 361.992 35.7954C360.186 34.6985 358.648 33.2135 357.487 31.4482C356.184 29.2621 355.556 26.7389 355.684 24.1967C355.621 21.8134 356.178 19.4547 357.302 17.3522C358.354 15.4636 359.806 13.8282 361.557 12.561C363.375 11.2549 365.416 10.2896 367.578 9.71222C369.835 9.08992 372.166 8.77873 374.506 8.78728C377.16 8.77942 379.799 9.19468 382.322 10.0174C384.864 10.8431 387.191 12.2202 389.139 14.0502L382.507 21.0519Z" fill="white"/>
<path d="M397.574 35.8319C397.53 32.0372 398.215 28.2694 399.59 24.7327C400.838 21.535 402.726 18.6265 405.14 16.1863C407.571 13.8062 410.468 11.9545 413.649 10.7476C417.127 9.4186 420.823 8.75349 424.545 8.78678C428.276 8.69879 431.991 9.29763 435.506 10.5534C438.717 11.7128 441.643 13.545 444.089 15.9273C446.532 18.3444 448.447 21.2419 449.713 24.4367C451.096 27.9713 451.781 31.7406 451.729 35.5359C451.774 39.2654 451.086 42.9675 449.703 46.4316C448.423 49.597 446.509 52.4675 444.08 54.867C441.618 57.2713 438.699 59.1582 435.496 60.4167C432.002 61.7605 428.289 62.4442 424.545 62.433C420.841 62.4753 417.162 61.826 413.696 60.5184C410.506 59.3354 407.601 57.4957 405.168 55.1184C402.735 52.7412 400.829 49.8794 399.572 46.7184C398.2 43.2553 397.521 39.5565 397.574 35.8319ZM407.092 35.2492C407.064 37.8285 407.489 40.3926 408.35 42.8244C409.136 45.0339 410.349 47.0673 411.92 48.8087C413.472 50.5029 415.362 51.8516 417.469 52.7674C419.728 53.7548 422.173 54.2469 424.638 54.2103C427.117 54.2438 429.576 53.7521 431.852 52.7674C433.96 51.8533 435.851 50.5043 437.402 48.8087C438.973 47.0673 440.186 45.0339 440.972 42.8244C441.832 40.3926 442.258 37.8285 442.23 35.2492C442.25 32.8122 441.824 30.3921 440.972 28.1087C440.166 25.9637 438.954 23.9946 437.402 22.3093C435.846 20.636 433.955 19.3093 431.852 18.4154C429.569 17.4562 427.114 16.9776 424.638 17.0095C422.177 16.9747 419.735 17.4535 417.469 18.4154C415.368 19.3112 413.477 20.6377 411.92 22.3093C410.367 23.9946 409.155 25.9637 408.35 28.1087C407.498 30.3921 407.072 32.8122 407.092 35.2492Z" fill="white"/>
<path d="M461.811 10.0908H494.766V18.3042H470.903V31.7158H493.397V39.9385H470.903V61.138H461.811V10.0908Z" fill="white"/>
<path d="M515.096 18.3042H499.465V10.0908H539.838V18.3042H524.179V61.138H515.096V18.3042Z" fill="white"/>
<path d="M541.771 10.0908H551.724L561.315 46.857H561.436L572.896 10.0908H581.84L593.087 46.857H593.226L603.252 10.0908H612.501L597.656 61.138H588.999L577.159 22.2722H577.011L565.191 61.1195H556.866L541.771 10.0908Z" fill="white"/>
<path d="M634.357 10.0908H642.21L664.205 61.138H653.818L649.064 49.4561H626.93L622.306 61.138H612.131L634.357 10.0908ZM645.891 41.6681L638.029 20.9033L630.029 41.6681H645.891Z" fill="white"/>
<path d="M671.336 10.0911H689.077C691.461 10.0816 693.841 10.3109 696.18 10.7756C698.336 11.1832 700.401 11.9759 702.275 13.1156C704.047 14.2227 705.511 15.7594 706.53 17.5831C707.661 19.7881 708.206 22.2471 708.112 24.7236C708.226 28.0899 707.141 31.3874 705.05 34.0284C702.83 36.6207 699.689 38.2491 696.291 38.5699L709.841 61.1383H698.881L687.06 39.504H680.428V61.1383H671.336V10.0911ZM687.495 31.7161C688.79 31.7161 690.085 31.6606 691.389 31.5403C692.614 31.4396 693.816 31.1462 694.95 30.6709C696.007 30.2348 696.92 29.5105 697.586 28.5806C698.325 27.408 698.678 26.0331 698.594 24.6496C698.656 23.3844 698.334 22.13 697.669 21.0516C697.058 20.1512 696.21 19.4374 695.218 18.989C694.154 18.5076 693.021 18.1956 691.861 18.064C690.676 17.9214 689.484 17.8503 688.29 17.8513H680.438V31.7253L687.495 31.7161Z" fill="white"/>
<path d="M718.203 10.0908H752.018V18.3042H727.295V30.8556H750.724V39.069H727.295V52.9431H753.323V61.138H718.175L718.203 10.0908Z" fill="white"/>
</svg>
