<svg width="1110" height="72" viewBox="0 0 1110 72" fill="none" xmlns="http://www.w3.org/2000/svg">
<path d="M148.693 10.082H157.775V61.1384H148.693V10.082Z" fill="white"/>
<path d="M170.391 10.082H182.416L207.148 48.0044H207.287V10.082H216.435V61.1384H204.855L179.622 21.9859H179.437V61.1384H170.354L170.391 10.082Z" fill="white"/>
<path d="M239.688 18.3047H224.038V10.082H264.42V18.3047H248.807V61.1384H239.725L239.688 18.3047Z" fill="white"/>
<path d="M272.06 10.082H305.876V18.3047H281.18V30.8468H304.581V39.0695H281.18V52.9435H307.171V61.1384H272.023L272.06 10.082Z" fill="white"/>
<path d="M317.558 10.0821H335.298C337.68 10.0767 340.056 10.306 342.392 10.7666C344.549 11.1757 346.614 11.9717 348.488 13.1159C350.266 14.2156 351.731 15.754 352.743 17.5833C353.877 19.7875 354.425 22.2466 354.333 24.7238C354.442 28.091 353.354 31.3878 351.263 34.0287C349.044 36.6233 345.902 38.2522 342.503 38.5701L356.1 61.1385H345.103L333.273 39.5043H326.641V61.1385H317.558V10.0821ZM333.707 31.7164C335.002 31.7164 336.306 31.6609 337.601 31.5406C338.829 31.4343 340.033 31.1411 341.172 30.6712C342.229 30.2351 343.142 29.5108 343.808 28.5808C344.542 27.4063 344.894 26.0329 344.816 24.6499C344.881 23.3814 344.558 22.1232 343.891 21.0426C343.279 20.1453 342.43 19.4347 341.44 18.9892C340.379 18.509 339.249 18.1969 338.092 18.0643C336.907 17.9189 335.715 17.8448 334.521 17.8423H326.659V31.7164H333.707Z" fill="white"/>
<path d="M364.424 10.082H397.38V18.3047H373.507V31.7163H396.002V39.9389H373.507V61.1384H364.424V10.082Z" fill="white"/>
<path d="M419.8 10.082H427.662L449.657 61.1384H439.27L434.507 49.4565H412.373L407.748 61.1384H397.574L419.8 10.082ZM431.334 41.6686L423.482 20.9038L415.472 41.6686H431.334Z" fill="white"/>
<path d="M491.834 22.0506C490.343 20.315 488.482 18.9368 486.386 18.0179C484.698 17.3554 482.9 17.0135 481.086 17.0097C478.625 16.9711 476.183 17.4501 473.918 18.4156C471.816 19.3105 469.925 20.6371 468.369 22.3096C466.814 23.9933 465.602 25.9629 464.798 28.1089C463.946 30.3921 463.519 32.8123 463.54 35.2494C463.512 37.8287 463.938 40.3929 464.798 42.8246C465.585 45.0342 466.798 47.0675 468.369 48.809C469.922 50.5011 471.813 51.8495 473.918 52.7677C476.177 53.7551 478.621 54.2471 481.086 54.2106C483.183 54.1992 485.247 53.6888 487.108 52.7214C489.251 51.5682 491.112 49.954 492.556 47.995L500.057 53.3319C497.922 56.3581 495.007 58.7491 491.621 60.2504C488.276 61.6985 484.667 62.4355 481.022 62.4148C477.315 62.4578 473.632 61.8084 470.163 60.5002C466.979 59.3139 464.079 57.4727 461.651 55.0956C459.223 52.7185 457.32 49.8584 456.067 46.7001C454.688 43.2353 454.003 39.5333 454.051 35.8044C454.006 32.0097 454.691 28.2418 456.067 24.7052C457.314 21.5075 459.203 18.599 461.617 16.1588C464.045 13.7755 466.943 11.9234 470.126 10.7201C473.605 9.40099 477.301 8.74531 481.022 8.78703C484.319 8.75692 487.59 9.38584 490.641 10.6369C493.843 12.0418 496.672 14.1768 498.901 16.871L491.834 22.0506Z" fill="white"/>
<path d="M507.623 10.082H541.438V18.3047H516.706V30.8468H540.162V39.0695H516.706V52.9435H542.743V61.1384H507.595L507.623 10.082Z" fill="white"/>
<path d="M578.14 21.0421C577.188 19.6599 575.845 18.5937 574.283 17.9805C572.669 17.3321 570.944 17.0023 569.205 17.0094C568.171 17.0065 567.14 17.1276 566.134 17.3701C565.188 17.5891 564.286 17.9709 563.47 18.4985C562.68 19.0275 562.025 19.7338 561.556 20.5611C561.056 21.4757 560.807 22.5066 560.834 23.5486C560.791 24.3066 560.933 25.0637 561.247 25.7549C561.561 26.4461 562.039 27.0506 562.638 27.5166C564.008 28.52 565.516 29.3206 567.115 29.8937C568.891 30.5658 570.836 31.2164 572.951 31.8453C575.005 32.4401 576.968 33.3114 578.787 34.4351C580.586 35.5585 582.115 37.0649 583.264 38.8471C584.564 41.0448 585.192 43.5757 585.068 46.1263C585.123 48.6038 584.603 51.0604 583.551 53.3038C582.594 55.2817 581.203 57.0176 579.481 58.3817C577.708 59.7647 575.686 60.7946 573.524 61.4155C571.209 62.0974 568.807 62.4371 566.393 62.4237C563.272 62.4332 560.173 61.898 557.236 60.842C554.282 59.7626 551.668 57.9176 549.661 55.4959L556.515 48.8549C557.598 50.5239 559.1 51.8793 560.871 52.7858C562.639 53.7169 564.608 54.1997 566.606 54.1917C567.678 54.1919 568.745 54.0488 569.778 53.7663C570.804 53.4881 571.778 53.0478 572.664 52.4621C573.52 51.8978 574.235 51.1447 574.755 50.2608C575.295 49.3322 575.57 48.2733 575.55 47.1992C575.592 46.3844 575.448 45.5706 575.127 44.8203C574.807 44.07 574.318 43.403 573.7 42.8705C572.357 41.7807 570.845 40.9183 569.223 40.3177C567.448 39.6148 565.524 38.9581 563.387 38.3291C561.335 37.734 559.37 36.8727 557.542 35.767C555.763 34.6729 554.25 33.1976 553.111 31.4476C551.791 29.2665 551.147 26.743 551.261 24.1961C551.201 21.812 551.762 19.4534 552.889 17.3516C553.941 15.4605 555.393 13.8221 557.144 12.5512C558.964 11.2482 561.003 10.2832 563.165 9.70236C565.419 9.08448 567.746 8.77337 570.084 8.77743C572.741 8.77047 575.382 9.1857 577.909 10.0076C580.449 10.83 582.774 12.2075 584.716 14.0403L578.14 21.0421Z" fill="white"/>
<path d="M654.428 49.0951L665.463 61.1192H654.281L648.879 55.2736C647.066 57.5158 644.808 59.3581 642.247 60.6845C639.602 61.9005 636.713 62.4922 633.802 62.4141C631.61 62.4315 629.428 62.1197 627.328 61.4892C625.31 60.8918 623.426 59.9121 621.778 58.6034C620.187 57.3265 618.882 55.7286 617.949 53.914C616.948 51.9056 616.452 49.683 616.506 47.4394C616.492 45.7989 616.787 44.1704 617.376 42.639C617.944 41.1845 618.73 39.8248 619.706 38.6063C620.711 37.3626 621.888 36.2693 623.203 35.3598C624.546 34.4248 626 33.6605 627.531 33.0845C626.717 32.1595 625.959 31.2346 625.265 30.4206C624.576 29.5802 623.954 28.6863 623.406 27.7476C622.869 26.8176 622.443 25.8272 622.139 24.797C621.823 23.6713 621.668 22.5068 621.677 21.3378C621.639 19.4423 622.044 17.5642 622.86 15.8529C623.619 14.3166 624.716 12.9725 626.07 11.9219C627.49 10.8548 629.096 10.0612 630.806 9.58185C632.607 9.04973 634.477 8.78179 636.355 8.78641C638.208 8.77678 640.053 9.01949 641.84 9.50786C643.507 9.94351 645.076 10.6904 646.465 11.7092C647.8 12.7089 648.885 14.0036 649.637 15.4922C650.458 17.1754 650.864 19.0308 650.821 20.9031C650.838 22.399 650.546 23.8823 649.961 25.2595C649.387 26.5775 648.607 27.7952 647.649 28.8667C646.667 29.9683 645.569 30.9607 644.374 31.8265C643.205 32.6817 641.968 33.4396 640.675 34.0926L648.897 42.9628L654.595 34.3146H664.769L654.428 49.0951ZM633.016 38.2086C632.147 38.7358 631.305 39.2723 630.491 39.8272C629.687 40.3701 628.937 40.9896 628.253 41.6771C627.584 42.3453 627.036 43.1246 626.634 43.9802C626.211 44.9086 625.999 45.9196 626.015 46.94C626.007 48.0081 626.231 49.0652 626.671 50.0385C627.077 50.9733 627.679 51.8095 628.438 52.4896C629.983 53.9006 632.006 54.6739 634.098 54.6539C635.952 54.6897 637.769 54.1359 639.287 53.0723C640.766 52.023 642.164 50.8636 643.468 49.6038L633.016 38.2086ZM636.476 16.5744C634.914 16.5355 633.387 17.0316 632.147 17.9803C631.564 18.4027 631.091 18.9596 630.769 19.6037C630.447 20.2477 630.285 20.96 630.297 21.68C630.322 22.3746 630.496 23.0558 630.806 23.6779C631.118 24.3661 631.506 25.0175 631.962 25.6202C632.439 26.2676 632.955 26.8854 633.506 27.4701C634.061 28.0528 634.626 28.5985 635.208 29.1257C635.93 28.7496 636.697 28.3056 637.511 27.7938C638.324 27.292 639.086 26.7128 639.787 26.0642C640.456 25.4457 641.027 24.7282 641.479 23.9368C641.918 23.145 642.141 22.252 642.127 21.347C642.14 20.6853 641.996 20.0298 641.709 19.4337C641.421 18.8375 640.997 18.3175 640.471 17.9155C639.338 17.0125 637.924 16.5377 636.476 16.5744Z" fill="white"/>
<path d="M696.606 10.082H710.48L724.113 45.8493L737.858 10.082H751.556V61.1384H742.899V18.7394H742.723L727.258 61.1384H720.913L705.402 18.7394H705.263V61.1384H696.606V10.082Z" fill="white"/>
<path d="M764.385 10.082H773.477V61.1384H764.385V10.082Z" fill="white"/>
<path d="M798.561 34.4541L781.57 10.082H793.03L805.054 28.9785L816.949 10.082H827.983L811.261 34.4541L829.759 61.1384H818.253L804.768 39.5782L791.356 61.1384H780.395L798.561 34.4541Z" fill="white"/>
<path d="M836.927 10.082H870.743V18.3047H846.01V30.8468H869.439V39.0695H846.01V52.9435H872.038V61.1384H836.891L836.927 10.082Z" fill="white"/>
<path d="M882.388 10.0821H900.128C902.51 10.0767 904.886 10.306 907.223 10.7666C909.379 11.1757 911.444 11.9717 913.318 13.1159C915.096 14.2156 916.561 15.754 917.573 17.5833C918.707 19.7875 919.255 22.2466 919.163 24.7238C919.272 28.091 918.184 31.3878 916.093 34.0287C913.881 36.617 910.75 38.2452 907.361 38.5701L920.921 61.1385H909.97L898.112 39.5043H891.48V61.1385H882.388V10.0821ZM898.574 31.7164C899.869 31.7164 901.174 31.6609 902.468 31.5406C903.696 31.4343 904.9 31.1411 906.039 30.6712C907.096 30.2351 908.009 29.5108 908.675 28.5808C909.409 27.4063 909.762 26.0329 909.683 24.6499C909.748 23.3814 909.426 22.1232 908.758 21.0426C908.146 20.1453 907.298 19.4347 906.307 18.9892C905.246 18.509 904.116 18.1969 902.959 18.0643C901.774 17.9189 900.582 17.8448 899.388 17.8423H891.526V31.7164H898.574Z" fill="white"/>
<path d="M954.311 21.0421C953.359 19.6599 952.016 18.5937 950.454 17.9805C948.837 17.3314 947.109 17.0016 945.367 17.0094C944.336 17.0073 943.308 17.1284 942.305 17.3701C941.358 17.5879 940.457 17.9698 939.642 18.4985C938.851 19.0275 938.196 19.7338 937.727 20.5611C937.227 21.4757 936.978 22.5066 937.005 23.5486C936.968 24.3106 937.117 25.0703 937.439 25.7618C937.761 26.4532 938.247 27.0556 938.855 27.5166C940.223 28.5183 941.728 29.3188 943.323 29.8937C945.108 30.5689 947.022 31.2164 949.168 31.8453C951.221 32.442 953.185 33.3131 955.005 34.4351C956.785 35.5664 958.296 37.072 959.435 38.8471C960.728 41.0474 961.352 43.577 961.229 46.1263C961.287 48.6031 960.771 51.0597 959.722 53.3038C958.765 55.284 957.37 57.0205 955.643 58.3817C953.872 59.7637 951.854 60.7936 949.696 61.4155C947.377 62.0981 944.972 62.4377 942.555 62.4237C939.434 62.4332 936.335 61.898 933.398 60.842C930.456 59.7604 927.854 57.9152 925.86 55.4959L932.705 48.8549C933.793 50.5223 935.298 51.8771 937.07 52.7858C939.81 54.2235 942.991 54.5737 945.977 53.7663C947.003 53.4881 947.977 53.0478 948.863 52.4621C949.717 51.8953 950.432 51.1427 950.953 50.2608C951.494 49.3322 951.769 48.2733 951.749 47.1992C951.789 46.3846 951.644 45.5715 951.323 44.8216C951.003 44.0716 950.516 43.4044 949.899 42.8705C948.555 41.7826 947.043 40.9205 945.422 40.3177C943.647 39.6148 941.723 38.9581 939.586 38.3291C937.534 37.734 935.569 36.8727 933.74 35.767C931.949 34.6772 930.423 33.2016 929.273 31.4476C927.953 29.2665 927.309 26.743 927.423 24.1961C927.363 21.812 927.924 19.4534 929.051 17.3516C930.099 15.4606 931.548 13.822 933.296 12.5512C935.119 11.2516 937.157 10.287 939.318 9.70236C941.575 9.0851 943.905 8.774 946.246 8.77743C948.903 8.77047 951.544 9.1857 954.071 10.0076C956.61 10.832 958.935 12.2093 960.878 14.0403L954.311 21.0421Z" fill="white"/>
</svg>
