<svg width="1110" height="72" viewBox="0 0 1110 72" fill="none" xmlns="http://www.w3.org/2000/svg">
<path d="M327.558 10.0908H335.42L357.406 61.138H347.028L342.265 49.4561H320.131L315.507 61.138H305.332L327.558 10.0908ZM339.092 41.6681L331.24 20.9033L323.23 41.6681H339.092Z" fill="white"/>
<path d="M399.611 22.0595C398.126 20.3194 396.267 18.9376 394.172 18.0176C392.483 17.3568 390.686 17.0149 388.872 17.0094C386.408 16.9747 383.964 17.4535 381.695 18.4153C379.594 19.3123 377.704 20.6387 376.145 22.3093C374.59 23.9921 373.377 25.9619 372.575 28.1086C371.723 30.392 371.297 32.8121 371.317 35.2491C371.289 37.8284 371.715 40.3925 372.575 42.8243C373.358 45.0355 374.571 47.0695 376.145 48.8087C377.698 50.5016 379.589 51.8501 381.695 52.7674C383.957 53.7547 386.404 54.2467 388.872 54.2103C390.96 54.1924 393.013 53.6822 394.866 52.7211C397.005 51.565 398.862 49.9512 400.305 47.9947L407.806 53.3316C405.676 56.3626 402.76 58.7547 399.37 60.2501C396.025 61.6982 392.416 62.4352 388.771 62.4145C385.067 62.4567 381.387 61.8074 377.921 60.4998C374.737 59.3136 371.837 57.4724 369.409 55.0953C366.981 52.7182 365.079 49.8581 363.825 46.6998C362.442 43.2392 361.757 39.5395 361.809 35.8133C361.76 32.0183 362.445 28.2496 363.825 24.7141C365.068 21.5141 366.957 18.6048 369.375 16.1677C371.804 13.7855 374.702 11.9336 377.884 10.7291C381.36 9.40749 385.052 8.74867 388.771 8.78671C392.071 8.76105 395.343 9.38979 398.399 10.6366C401.597 12.0451 404.421 14.1796 406.65 16.8706L399.611 22.0595Z" fill="white"/>
<path d="M450.418 22.0595C448.919 20.3142 447.044 18.9321 444.933 18.0175C443.247 17.356 441.453 17.0141 439.642 17.0093C437.178 16.9746 434.734 17.4534 432.465 18.4152C430.366 19.3158 428.476 20.6417 426.915 22.3092C425.365 23.9948 424.156 25.9641 423.354 28.1086C422.499 30.3914 422.07 32.8115 422.087 35.2491C422.062 37.8289 422.491 40.3931 423.354 42.8243C424.137 45.0333 425.347 47.0667 426.915 48.8086C428.47 50.4986 430.36 51.8468 432.465 52.7673C434.727 53.7547 437.174 54.2466 439.642 54.2102C441.734 54.2035 443.795 53.6994 445.654 52.7396C447.797 51.5864 449.658 49.9721 451.102 48.0132L458.603 53.35C456.468 56.3762 453.553 58.7672 450.168 60.2686C446.823 61.7166 443.213 62.4536 439.568 62.4329C435.864 62.4761 432.184 61.8267 428.719 60.5183C425.534 59.332 422.635 57.4908 420.207 55.1137C417.778 52.7366 415.876 49.8765 414.623 46.7183C413.237 43.2583 412.548 39.5586 412.597 35.8318C412.552 32.0361 413.239 28.2674 414.623 24.7325C415.863 21.5314 417.753 18.6216 420.172 16.1862C422.602 13.804 425.499 11.952 428.682 10.7475C432.167 9.41422 435.873 8.74902 439.605 8.78667C442.902 8.76223 446.172 9.39094 449.224 10.6365C452.425 12.0447 455.253 14.1792 457.484 16.8706L450.418 22.0595Z" fill="white"/>
<path d="M466.206 10.0908H500.022V18.3042H475.289V30.8556H498.727V39.069H475.289V52.9431H501.354V61.138H466.206V10.0908Z" fill="white"/>
<path d="M536.723 21.0519C535.775 19.6643 534.431 18.5943 532.866 17.9811C531.249 17.332 529.522 17.0022 527.779 17.0099C526.748 17.0069 525.72 17.128 524.718 17.3707C523.771 17.5884 522.869 17.9703 522.054 18.4991C521.262 19.0223 520.606 19.7261 520.139 20.5524C519.64 21.4676 519.391 22.498 519.418 23.54C519.38 24.302 519.529 25.0616 519.851 25.7531C520.174 26.4445 520.66 27.0469 521.268 27.5079C522.633 28.513 524.138 29.3138 525.735 29.885C527.52 30.5602 529.435 31.2077 531.581 31.8366C533.634 32.4333 535.597 33.3044 537.417 34.4265C539.193 35.5633 540.701 37.0717 541.838 38.8476C543.154 41.0408 543.797 43.5717 543.688 46.1269C543.746 48.6037 543.23 51.0602 542.18 53.3044C541.221 55.2827 539.826 57.0185 538.101 58.3823C536.331 59.7643 534.312 60.7941 532.154 61.4161C529.836 62.0987 527.43 62.4383 525.014 62.4242C521.893 62.4338 518.794 61.8985 515.857 60.8426C512.887 59.7726 510.259 57.9265 508.245 55.4965L515.089 48.8554C516.175 50.5251 517.681 51.8805 519.455 52.7864C522.194 54.2241 525.375 54.5743 528.362 53.7668C529.387 53.4886 530.361 53.0484 531.248 52.4627C532.099 51.8968 532.813 51.1479 533.338 50.2706C533.874 49.3373 534.146 48.2758 534.124 47.1998C534.172 46.3887 534.034 45.5775 533.721 44.8276C533.409 44.0776 532.93 43.4086 532.321 42.8711C530.98 41.7831 529.471 40.9209 527.853 40.3183C526.077 39.6153 524.153 38.9586 522.017 38.3297C519.96 37.745 517.988 36.893 516.153 35.7954C514.367 34.692 512.848 33.2075 511.704 31.4482C510.384 29.267 509.74 26.7436 509.854 24.1967C509.794 21.8126 510.355 19.4539 511.482 17.3522C512.528 15.4626 513.977 13.8267 515.727 12.561C517.545 11.2549 519.586 10.2896 521.749 9.71219C524.005 9.09046 526.336 8.77929 528.676 8.78726C531.333 8.77841 533.975 9.19369 536.501 10.0174C539.043 10.8431 541.371 12.2201 543.318 14.0501L536.723 21.0519Z" fill="white"/>
<path d="M579.548 21.0519C578.599 19.6643 577.256 18.5943 575.691 17.9811C574.077 17.3327 572.352 17.0029 570.613 17.01C569.579 17.0071 568.548 17.1282 567.542 17.3707C566.596 17.5901 565.694 17.9719 564.878 18.4991C564.086 19.0223 563.43 19.7261 562.964 20.5525C562.465 21.4676 562.216 22.498 562.242 23.54C562.199 24.298 562.341 25.0551 562.655 25.7463C562.969 26.4374 563.446 27.042 564.046 27.508C565.414 28.515 566.922 29.3158 568.522 29.885C570.298 30.5572 572.244 31.2077 574.359 31.8367C576.413 32.4315 578.376 33.3027 580.195 34.4265C581.993 35.5551 583.521 37.0643 584.672 38.8477C585.963 41.0514 586.581 43.5853 586.448 46.1362C586.503 48.6137 585.984 51.0703 584.931 53.3137C583.975 55.2915 582.583 57.0274 580.861 58.3915C579.088 59.7746 577.066 60.8045 574.905 61.4253C572.589 62.1073 570.187 62.4469 567.773 62.4335C564.652 62.4431 561.553 61.9078 558.616 60.8519C555.671 59.7656 553.067 57.9176 551.069 55.4965L557.923 48.8555C559.003 50.5267 560.506 51.8828 562.279 52.7864C564.047 53.7175 566.016 54.2003 568.014 54.1923C569.086 54.1925 570.152 54.0495 571.186 53.7669C572.212 53.4887 573.186 53.0484 574.072 52.4627C574.926 51.8995 575.64 51.15 576.162 50.2706C576.701 49.3381 576.976 48.2766 576.958 47.1998C577 46.3851 576.855 45.5715 576.534 44.8213C576.213 44.0711 575.726 43.4041 575.108 42.8711C573.792 41.7965 572.312 40.9408 570.724 40.3368C568.948 39.6339 567.024 38.9772 564.888 38.3482C562.838 37.758 560.876 36.8996 559.051 35.7954C557.238 34.7024 555.692 33.217 554.528 31.4482C553.208 29.2671 552.564 26.7436 552.678 24.1967C552.618 21.8126 553.179 19.454 554.306 17.3522C555.356 15.4622 556.808 13.8264 558.561 12.561C560.377 11.2508 562.418 10.2851 564.582 9.71221C566.835 9.08996 569.163 8.77876 571.501 8.78728C574.158 8.78032 576.799 9.19555 579.326 10.0174C581.864 10.8435 584.189 12.2206 586.133 14.0502L579.548 21.0519Z" fill="white"/>
<path d="M594.624 35.8315C594.576 32.0365 595.26 28.2678 596.641 24.7323C597.883 21.5324 599.773 18.623 602.19 16.1859C604.62 13.8037 607.517 11.9518 610.699 10.7473C614.177 9.41827 617.873 8.75315 621.595 8.78645C625.326 8.70035 629.041 9.29913 632.556 10.5531C635.764 11.7126 638.688 13.5449 641.13 15.9269C643.575 18.3436 645.493 21.241 646.763 24.4363C648.146 27.971 648.831 31.7403 648.779 35.5356C648.824 39.2651 648.136 42.9671 646.753 46.4313C645.469 49.5971 643.553 52.4675 641.121 54.8667C638.662 57.2707 635.747 59.1577 632.546 60.4163C629.052 61.7586 625.339 62.4422 621.595 62.4327C617.891 62.475 614.212 61.8256 610.746 60.5181C607.556 59.3351 604.651 57.4954 602.218 55.1181C599.785 52.7408 597.879 49.879 596.622 46.718C595.246 43.2562 594.567 39.5565 594.624 35.8315ZM604.132 35.2488C604.107 37.8287 604.536 40.3928 605.4 42.8241C606.182 45.0352 607.396 47.0693 608.97 48.8084C610.523 50.5013 612.413 51.8499 614.519 52.7671C616.782 53.7544 619.229 54.2464 621.697 54.21C624.174 54.2422 626.629 53.7504 628.902 52.7671C631.01 51.853 632.901 50.504 634.452 48.8084C636.026 47.0693 637.239 45.0352 638.022 42.8241C638.885 40.3928 639.314 37.8287 639.289 35.2488C639.306 32.8113 638.877 30.3912 638.022 28.1083C637.22 25.9617 636.007 23.9918 634.452 22.309C632.896 20.6357 631.005 19.3089 628.902 18.415C626.623 17.4559 624.17 16.9773 621.697 17.0091C619.233 16.9744 616.788 17.4532 614.519 18.415C612.418 19.3121 610.528 20.6384 608.97 22.309C607.414 23.9918 606.202 25.9617 605.4 28.1083C604.545 30.3912 604.115 32.8113 604.132 35.2488Z" fill="white"/>
<path d="M658.861 10.0911H676.601C678.986 10.0816 681.366 10.3109 683.705 10.7756C685.858 11.1833 687.919 11.976 689.791 13.1156C691.565 14.2202 693.029 15.7574 694.045 17.5831C695.18 19.7872 695.728 22.2463 695.636 24.7236C695.747 28.091 694.659 31.3883 692.566 34.0284C690.347 36.623 687.205 38.2519 683.806 38.5699L697.366 61.1383H686.405L674.576 39.504H667.944V61.1383H658.861V10.0911ZM675.01 31.7161C676.314 31.7161 677.609 31.6606 678.904 31.5403C680.132 31.4384 681.337 31.1451 682.475 30.6709C683.532 30.2348 684.445 29.5105 685.111 28.5806C685.845 27.4061 686.197 26.0326 686.119 24.6496C686.185 23.3839 685.862 22.1283 685.194 21.0516C684.585 20.1492 683.736 19.4349 682.743 18.989C681.681 18.5087 680.552 18.1967 679.394 18.064C678.21 17.9216 677.018 17.8506 675.824 17.8513H667.962V31.7253L675.01 31.7161Z" fill="white"/>
<path d="M705.515 10.0908H714.598V61.138H705.515V10.0908Z" fill="white"/>
<path d="M727.214 10.0908H761.029V18.3042H736.287V30.8556H759.725V39.069H736.287V52.9431H762.315V61.138H727.167L727.214 10.0908Z" fill="white"/>
<path d="M797.731 21.0519C796.782 19.6643 795.438 18.5943 793.874 17.9811C792.256 17.3327 790.529 17.0029 788.787 17.0099C787.755 17.0069 786.727 17.128 785.725 17.3707C784.775 17.5874 783.87 17.9694 783.052 18.4991C782.265 19.0253 781.613 19.7285 781.147 20.5524C780.648 21.4676 780.399 22.498 780.425 23.54C780.382 24.298 780.524 25.0551 780.838 25.7462C781.152 26.4374 781.629 27.042 782.229 27.5079C783.595 28.513 785.1 29.3138 786.696 29.885C788.472 30.5571 790.421 31.2077 792.542 31.8366C794.595 32.4333 796.558 33.3044 798.378 34.4265C800.184 35.5538 801.722 37.0628 802.883 38.8476C804.182 41.0458 804.809 43.5764 804.686 46.1269C804.746 48.6048 804.227 51.0625 803.169 53.3044C802.213 55.2822 800.822 57.0182 799.1 58.3823C797.328 59.7627 795.31 60.7924 793.152 61.4161C790.834 62.098 788.428 62.4376 786.012 62.4242C782.891 62.4338 779.792 61.8985 776.855 60.8426C773.889 59.7711 771.264 57.9252 769.252 55.4965L776.096 48.8554C777.183 50.5251 778.688 51.8805 780.462 52.7864C782.239 53.7313 784.222 54.2207 786.234 54.2108C787.305 54.211 788.372 54.0679 789.406 53.7854C790.433 53.5108 791.408 53.0703 792.292 52.4812C793.148 51.9205 793.863 51.1705 794.382 50.2891C794.921 49.3566 795.196 48.2951 795.178 47.2183C795.22 46.4035 795.075 45.59 794.754 44.8398C794.433 44.0896 793.946 43.4226 793.328 42.8896C791.987 41.8016 790.479 40.9394 788.861 40.3368C787.085 39.6338 785.161 38.9771 783.024 38.3482C780.972 37.7579 779.006 36.8996 777.179 35.7954C775.387 34.6942 773.861 33.2095 772.711 31.4482C771.391 29.267 770.747 26.7436 770.861 24.1967C770.798 21.8134 771.356 19.4547 772.48 17.3522C773.529 15.4621 774.982 13.8264 776.735 12.561C778.553 11.2549 780.593 10.2896 782.756 9.71219C785.009 9.0905 787.337 8.77932 789.674 8.78726C792.331 8.7803 794.973 9.19553 797.499 10.0174C800.041 10.8431 802.369 12.2201 804.316 14.0501L797.731 21.0519Z" fill="white"/>
</svg>
