<svg width="1110" height="72" viewBox="0 0 1110 72" fill="none" xmlns="http://www.w3.org/2000/svg">
<path d="M281.55 10.0908H295.424L309.021 45.8488L322.802 10.0908H336.491V61.138H327.843V18.739H327.695L312.193 61.138H305.848L290.346 18.739H290.208V61.138H281.55V10.0908Z" fill="white"/>
<path d="M349.329 10.0908H358.412V61.138H349.329V10.0908Z" fill="white"/>
<path d="M406.046 22.0592C404.558 20.3184 402.696 18.9366 400.599 18.0173C398.91 17.3548 397.113 17.0129 395.299 17.0091C392.838 16.9743 390.396 17.4531 388.13 18.415C386.03 19.3132 384.14 20.6394 382.581 22.309C381.027 23.9916 379.818 25.9616 379.02 28.1083C378.165 30.3911 377.736 32.8112 377.753 35.2488C377.728 37.8287 378.156 40.3928 379.02 42.824C379.799 45.0347 381.01 47.0687 382.581 48.8084C384.134 50.5004 386.025 51.8489 388.13 52.7671C390.389 53.7545 392.834 54.2465 395.299 54.21C397.405 54.203 399.479 53.6924 401.348 52.7208C403.491 51.5676 405.352 49.9534 406.796 47.9944L414.297 53.3313C412.161 56.3597 409.242 58.751 405.852 60.2498C402.511 61.6987 398.904 62.4358 395.262 62.4142C391.555 62.4572 387.872 61.8078 384.403 60.4995C381.227 59.3044 378.333 57.4653 375.903 55.0979C373.483 52.7106 371.578 49.8522 370.307 46.6995C368.928 43.2377 368.243 39.5389 368.291 35.813C368.247 32.0184 368.931 28.2506 370.307 24.7138C371.565 21.5107 373.47 18.6014 375.903 16.1674C378.329 13.7854 381.224 11.9334 384.403 10.7288C387.87 9.41102 391.553 8.75228 395.262 8.78642C398.559 8.76198 401.828 9.39069 404.881 10.6363C408.081 12.0445 410.909 14.1789 413.141 16.8704L406.046 22.0592Z" fill="white"/>
<path d="M421.863 10.0911H439.603C441.985 10.0812 444.362 10.3105 446.697 10.7756C448.854 11.1817 450.919 11.9745 452.793 13.1157C454.567 14.2202 456.031 15.7575 457.047 17.5831C458.182 19.7872 458.73 22.2463 458.638 24.7236C458.749 28.091 457.661 31.3884 455.568 34.0285C453.349 36.6231 450.207 38.2519 446.808 38.5699L460.368 61.1383H449.407L437.578 39.5041H430.946V61.1383H421.863V10.0911ZM438.012 31.7161C439.316 31.7161 440.611 31.6606 441.906 31.5404C443.134 31.4384 444.339 31.1451 445.477 30.6709C446.534 30.2348 447.447 29.5105 448.113 28.5806C448.847 27.4061 449.199 26.0327 449.121 24.6496C449.187 23.384 448.864 22.1284 448.196 21.0516C447.587 20.1493 446.738 19.4349 445.745 18.989C444.683 18.5087 443.554 18.1967 442.396 18.0641C441.212 17.9217 440.019 17.8506 438.826 17.8513H430.964V31.7254L438.012 31.7161Z" fill="white"/>
<path d="M465.992 35.8315C465.943 32.0365 466.628 28.2678 468.008 24.7323C469.251 21.5324 471.14 18.623 473.558 16.1859C475.987 13.8037 478.885 11.9518 482.067 10.7473C485.553 9.41485 489.259 8.74967 492.99 8.78645C496.721 8.70035 500.436 9.29913 503.951 10.5531C507.162 11.7125 510.089 13.5447 512.534 15.9269C514.977 18.3441 516.892 21.2416 518.158 24.4363C519.541 27.971 520.226 31.7403 520.174 35.5356C520.222 39.2645 519.537 42.9665 518.158 46.4313C516.877 49.5967 514.964 52.4671 512.534 54.8667C510.072 57.271 507.154 59.1579 503.951 60.4163C500.453 61.7597 496.737 62.4433 492.99 62.4327C489.286 62.475 485.607 61.8256 482.141 60.5181C478.952 59.3351 476.046 57.4954 473.613 55.1181C471.18 52.7408 469.274 49.879 468.017 46.718C466.631 43.2581 465.943 39.5584 465.992 35.8315ZM475.509 35.2488C475.481 37.8281 475.907 40.3923 476.767 42.8241C477.553 45.0336 478.766 47.0669 480.337 48.8084C481.89 50.5013 483.781 51.8499 485.887 52.7671C488.126 53.7441 490.547 54.2359 492.99 54.21C495.467 54.2444 497.923 53.7526 500.196 52.7671C502.302 51.8499 504.192 50.5013 505.745 48.8084C507.316 47.0669 508.529 45.0336 509.316 42.8241C510.172 40.3912 510.597 37.8278 510.573 35.2488C510.589 32.8122 510.163 30.3929 509.316 28.1083C508.51 25.9634 507.298 23.9942 505.745 22.309C504.187 20.6386 502.297 19.3123 500.196 18.415C497.916 17.4548 495.463 16.9762 492.99 17.0091C490.526 16.9744 488.082 17.4532 485.813 18.415C483.712 19.3121 481.822 20.6384 480.263 22.309C478.711 23.9942 477.499 25.9634 476.693 28.1083C475.867 30.3965 475.465 32.8164 475.509 35.2488Z" fill="white"/>
<path d="M530.228 10.091H547.395C549.778 10.0843 552.156 10.3261 554.489 10.8124C556.629 11.235 558.671 12.0537 560.511 13.2265C562.253 14.3689 563.681 15.9304 564.664 17.7679C565.761 19.9705 566.292 22.412 566.208 24.8714C566.325 27.5657 565.755 30.2454 564.553 32.6594C563.507 34.5657 561.958 36.1492 560.076 37.2378C558.071 38.3612 555.876 39.1044 553.601 39.4299C551.037 39.8252 548.445 40.02 545.85 40.0126H539.376V61.1381H530.293L530.228 10.091ZM544.787 32.2246C546.082 32.2246 547.432 32.1784 548.819 32.0767C550.146 31.9995 551.452 31.7091 552.686 31.2165C553.821 30.7662 554.815 30.0186 555.562 29.0521C556.385 27.8573 556.782 26.4208 556.691 24.9732C556.744 23.6654 556.392 22.3732 555.683 21.2734C555.028 20.3293 554.143 19.5683 553.111 19.0628C551.997 18.5416 550.802 18.2132 549.578 18.0916C548.35 17.9514 547.114 17.8803 545.878 17.8789H539.404V32.2246H544.787Z" fill="white"/>
<path d="M575.726 10.0908H584.809V30.4394H608.681V10.0908H617.764V61.138H608.681V38.6436H584.809V61.138H575.726V10.0908Z" fill="white"/>
<path d="M627.855 35.8318C627.811 32.0371 628.496 28.2693 629.871 24.7325C631.119 21.5349 633.007 18.6264 635.421 16.1861C637.852 13.806 640.749 11.9544 643.93 10.7475C647.417 9.41548 651.122 8.75032 654.854 8.78665C658.582 8.69938 662.294 9.29821 665.805 10.5533C669.016 11.7127 671.943 13.5449 674.389 15.9272C676.834 18.3419 678.749 21.24 680.012 24.4366C681.4 27.9699 682.085 31.7401 682.029 35.5358C682.081 39.2651 681.396 42.968 680.012 46.4315C678.734 49.5982 676.82 52.4692 674.389 54.8669C671.927 57.2712 669.008 59.1581 665.805 60.4165C662.311 61.7606 658.598 62.4443 654.854 62.4329C651.147 62.4759 647.464 61.8266 643.995 60.5183C640.808 59.3342 637.904 57.494 635.473 55.1168C633.041 52.7396 631.136 49.8783 629.881 46.7182C628.499 43.2571 627.811 39.5582 627.855 35.8318ZM637.373 35.249C637.347 37.8289 637.776 40.3931 638.64 42.8243C639.419 45.0349 640.63 47.069 642.201 48.8086C643.754 50.5007 645.645 51.8491 647.75 52.7673C649.989 53.7457 652.411 54.2375 654.854 54.2102C657.334 54.2437 659.792 53.7519 662.068 52.7673C664.176 51.8532 666.068 50.5042 667.618 48.8086C669.189 47.0671 670.402 45.0338 671.188 42.8243C672.049 40.3925 672.474 37.8283 672.446 35.249C672.466 32.812 672.04 30.392 671.188 28.1085C670.383 25.9636 669.17 23.9945 667.618 22.3092C666.062 20.6359 664.171 19.3091 662.068 18.4152C659.786 17.4561 657.33 16.9775 654.854 17.0093C652.393 16.9745 649.951 17.4534 647.686 18.4152C645.585 19.3135 643.695 20.6397 642.136 22.3092C640.583 23.9918 639.373 25.9619 638.575 28.1085C637.742 30.3955 637.335 32.8155 637.373 35.249Z" fill="white"/>
<path d="M692.101 10.0908H704.125L728.858 48.0132H729.006V10.0908H738.098V61.138H726.564L701.323 21.9855H701.184V61.138H692.101V10.0908Z" fill="white"/>
<path d="M750.936 10.0908H784.752V18.3042H760.019V30.8556H783.42V39.069H760.019V52.9431H786.047V61.138H750.899L750.936 10.0908Z" fill="white"/>
<path d="M821.444 21.052C820.496 19.6644 819.152 18.5944 817.587 17.9812C815.973 17.3328 814.249 17.003 812.509 17.01C811.475 17.0072 810.444 17.1283 809.438 17.3707C808.492 17.5901 807.591 17.9719 806.775 18.4992C805.983 19.0224 805.327 19.7261 804.86 20.5525C804.361 21.4676 804.112 22.4981 804.139 23.54C804.101 24.302 804.25 25.0617 804.572 25.7532C804.894 26.4446 805.381 27.047 805.988 27.508C807.356 28.515 808.865 29.3159 810.465 29.8851C812.241 30.5572 814.186 31.2078 816.301 31.8367C818.357 32.4333 820.324 33.3045 822.147 34.4265C823.923 35.5634 825.431 37.0717 826.568 38.8477C827.884 41.0409 828.527 43.5718 828.418 46.127C828.472 48.6083 827.949 51.0683 826.892 53.3137C825.936 55.2916 824.544 57.0275 822.822 58.3916C821.049 59.7747 819.027 60.8045 816.866 61.4254C814.55 62.1073 812.148 62.447 809.734 62.4336C806.613 62.4431 803.515 61.9079 800.578 60.8519C797.609 59.7757 794.981 57.927 792.965 55.4966L799.819 48.8555C800.902 50.5248 802.404 51.8804 804.176 52.7865C805.943 53.7176 807.912 54.2004 809.91 54.1924C810.982 54.1926 812.049 54.0495 813.083 53.7669C814.108 53.4887 815.082 53.0484 815.968 52.4628C816.822 51.8996 817.537 51.1501 818.059 50.2707C818.598 49.3381 818.872 48.2767 818.854 47.1999C818.902 46.3888 818.764 45.5776 818.451 44.8276C818.139 44.0777 817.66 43.4086 817.051 42.8712C815.71 41.7832 814.201 40.921 812.583 40.3184C810.798 39.6154 808.883 38.9587 806.738 38.3298C804.688 37.7395 802.726 36.8812 800.901 35.7769C799.107 34.6838 797.577 33.2052 796.425 31.4482C795.121 29.2621 794.493 26.739 794.621 24.1968C794.561 21.8127 795.122 19.454 796.249 17.3522C797.298 15.4622 798.751 13.8264 800.504 12.5611C802.326 11.2553 804.374 10.2959 806.543 9.73077C808.797 9.10851 811.124 8.79732 813.462 8.80583C816.119 8.79888 818.76 9.21411 821.287 10.036C823.826 10.862 826.15 12.2391 828.094 14.0687L821.444 21.052Z" fill="white"/>
</svg>
