<svg width="95" height="24" viewBox="0 0 95 24" fill="none" xmlns="http://www.w3.org/2000/svg">
<g clip-path="url(#clip0_1_15)">
<path d="M56.8588 16L50.7379 23.9976H45.2783L51.4204 16L45.2783 8.00242H50.7379L56.8588 16Z" fill="#B7B7B7"/>
<path d="M57.7539 14.8483L63.0004 8.00242H57.5407L55.0241 11.2868L57.7539 14.8483Z" fill="#B7B7B7"/>
<path d="M55.0241 20.7132L57.5407 23.9976H63.0004L57.7539 17.1516L55.0241 20.7132Z" fill="#B7B7B7"/>
<path d="M29.4972 14.9976C29.5399 15.3815 29.5612 15.7441 29.5612 16C29.5612 16.9597 29.3906 19.1777 27.7911 19.1777C27.0661 19.1777 26.6396 18.7085 26.3836 18.1114L29.4972 14.9976ZM27.7911 12.8223C28.5375 12.8223 28.9641 13.3128 29.22 13.9313L26.0851 17.045C26.0211 16.6398 26.0211 16.2772 26.0211 16C26.0211 15.0403 26.1917 12.8223 27.7911 12.8223ZM31.9497 12.545L31.2886 11.8839L30.4569 12.6943C29.7318 12.1185 28.8148 11.7773 27.7911 11.7773C25.4027 11.7773 23.5473 13.6327 23.5473 16C23.5473 17.0237 23.8885 17.9407 24.4857 18.6659L23.6539 19.4763L24.315 20.1374L25.1254 19.327C25.8505 19.8815 26.7462 20.2014 27.7698 20.2014C30.1583 20.2014 32.0136 18.346 32.0136 15.9787C32.0136 14.9763 31.6724 14.0593 31.0966 13.3341L31.9497 12.545ZM38.1555 15.8294C38.1555 17.3223 37.5583 18.9005 35.8949 18.9005H35.0845V13.0995H35.8096C37.4304 13.0995 38.1555 14.4645 38.1555 15.8294ZM36.3428 11.9905H32.7814V19.9881H36.684C39.0725 19.9881 40.6292 18.4739 40.6292 16.128C40.6292 13.7393 38.8166 11.9905 36.3428 11.9905ZM46.6004 18.7298V20.0094H41.2903V11.9905H46.6218V13.2702H43.7001V15.2536H46.3232V16.5332H43.7001V18.7298H46.6004ZM18.5998 13.1635H19.3035C20.0712 13.1635 20.6044 13.6967 20.6044 14.4858C20.6044 15.6161 19.9646 15.8294 18.8557 15.8294H18.5998V13.1635ZM23.0782 14.4431C23.0782 12.9289 21.5854 12.0119 20.1992 12.0119H16.1899V20.0094H18.5998V16.128L20.4551 19.9455L20.4764 20.0094H23.2061L21.3081 16.6398C22.4171 16.3199 23.0782 15.4882 23.0782 14.4431Z" fill="#B7B7B7"/>
</g>
<g clip-path="url(#clip1_1_15)">
<path d="M91.4016 9.21899C91.4016 6.88051 89.4821 5 87.0793 5C84.6763 5 82.764 6.88051 82.764 9.21899C82.764 11.5297 84.6835 13.4102 87.0864 13.4102C89.4893 13.4102 91.4016 11.5297 91.4016 9.21899Z" stroke="#484848" stroke-miterlimit="10" stroke-linecap="round" stroke-linejoin="round"/>
<path d="M80.1406 20.488C79.643 21.6746 80.5245 23 81.854 23H92.3116C93.641 23 94.5225 21.6746 94.0249 20.488C92.7239 17.4626 90.1006 15.4155 87.0792 15.4155C84.0436 15.4155 81.4132 17.4626 80.1406 20.488Z" stroke="#484848" stroke-miterlimit="10" stroke-linecap="round" stroke-linejoin="round"/>
</g>
<defs>
<clipPath id="clip0_1_15">
<rect width="46.81" height="16" fill="white" transform="translate(16.1899 8)"/>
</clipPath>
<clipPath id="clip1_1_15">
<rect width="16" height="20" fill="white" transform="translate(78.9999 4)"/>
</clipPath>
</defs>
</svg>
