<svg width="88" height="25" viewBox="0 0 88 25" fill="none" xmlns="http://www.w3.org/2000/svg">
<g id="RODE_Logo_87x51_RGB.svg" clip-path="url(#clip0_2_990)">
<g id="Group">
<path id="Vector" d="M19.9629 7.66517C19.9629 3.31685 15.6652 0.616852 11.6708 0.616852H0.0112305V23.7742H6.95842V12.5899L12.3483 23.5719L12.4494 23.7236H20.3775L14.8359 14.036C17.991 13.1056 19.9629 10.6685 19.9629 7.66517ZM6.95842 3.93371H8.98089C11.2056 3.93371 12.7629 5.49101 12.7629 7.76629C12.7629 11.0326 10.9022 11.6494 7.68651 11.6494H6.89775V3.93371H6.95842Z" fill="black"/>
<path id="Vector_2" d="M79.5449 20.0528V13.7326H87.1089V10.0517H79.5449V4.29775H87.9887V0.616852H72.5977V23.7843H87.9381V20.0528H79.5449Z" fill="black"/>
<path id="Vector_3" d="M58.2989 0.616852H48.0449V23.7742H59.3404C66.2876 23.7742 70.7371 19.3652 70.7371 12.6303C70.7371 5.64269 65.4989 0.616852 58.2989 0.616852ZM63.5371 11.7101C63.5371 16.0079 61.8281 20.6191 57.0045 20.6191H54.6685V3.78202H56.7415C61.464 3.78202 63.5371 7.7764 63.5371 11.7101Z" fill="black"/>
<path id="Vector_4" d="M45.6079 2.17416L43.6865 0.252809L41.3 2.63933C39.2371 0.980899 36.5371 0 33.5843 0C26.6371 0 21.2573 5.33933 21.2573 12.1753C21.2573 15.1281 22.2888 17.818 23.9472 19.891L21.6113 22.227L23.5326 24.1483L25.9191 21.7618C27.9922 23.3697 30.6315 24.3 33.5337 24.3C40.4202 24.3 45.8101 18.9607 45.8101 12.1247C45.8101 9.22247 44.8292 6.58315 43.1708 4.51011L45.6079 2.17416ZM33.5843 3.00337C35.7584 3.00337 37.0023 4.39888 37.7304 6.16854L28.6596 15.2393C28.5079 14.0966 28.4573 13.0146 28.4573 12.1854C28.4573 9.43483 28.9731 3.00337 33.5843 3.00337ZM38.4584 9.27303C38.6101 10.3652 38.6607 11.3966 38.6607 12.1753C38.6607 14.9258 38.145 21.3472 33.5337 21.3472C31.4101 21.3472 30.1663 20.0022 29.4382 18.2933L38.4584 9.27303Z" fill="black"/>
</g>
</g>
<defs>
<clipPath id="clip0_2_990">
<rect width="87.9775" height="24.3" fill="white" transform="translate(0.0112305)"/>
</clipPath>
</defs>
</svg>
